<svg width="428" height="172" viewBox="0 0 428 172" fill="none" xmlns="http://www.w3.org/2000/svg">
<path d="M186.15 89.4487C186.15 88.7944 185.37 88.0003 184.541 88.6076C182.445 89.8692 177.813 92.2052 171.232 92.8591L147.1 95.4753L143.297 68.7522C150.415 67.8646 157.582 67.0235 162.115 66.6034C167.088 66.136 170.354 66.7902 172.207 67.3042C173.523 67.7712 174.157 66.977 174.06 66.136L172.159 44.2717C172.012 43.057 171.134 43.057 170.257 43.5709C168.648 44.5054 166.064 45.2531 159.824 45.8604C153.876 46.4209 147.002 47.1685 140.323 48.0092L137.106 25.3975C139.982 24.977 149.635 23.3419 161.384 22.1739C169.964 21.2863 174.986 22.2674 176.741 22.7813C177.813 23.155 178.252 22.4543 178.252 21.8469L177.033 1.05713C152.414 2.69229 130.963 5.72901 108.586 9.5599C107.318 9.7935 107.075 10.6345 107.611 11.5221C109.805 14.9793 110.633 19.7446 111.56 25.9581L123.26 102.156C124.381 108.276 124.967 113.042 124.381 117.199C124.138 118.461 125.161 118.835 126.137 118.648C145.784 115.378 167.673 112.761 187.613 111.733L186.15 89.4487Z" fill="white"/>
<path d="M198.483 110.005C200.384 105.38 200.384 99.6803 200.384 94.1207L200.287 16.2409C200.19 11.3821 199.751 6.42999 198.191 1.71141C198.044 1.29095 197.898 0.35659 199.214 0.309847C206.332 0.076285 218.179 -0.11061 226.711 0.0762851C228.075 0.0762851 227.929 1.1975 227.783 1.61796C225.979 7.31765 226.125 10.4478 225.882 15.4934L225.784 94.0273C225.784 98.8861 226.028 106.081 227.491 109.772C227.734 110.425 227.685 111.08 226.759 111.08C216.863 110.893 208.77 110.986 199.214 111.36C198.385 111.36 198.142 110.753 198.532 110.005H198.483Z" fill="white"/>
<path d="M320.456 107.156C319.579 111.5 319.335 115.752 320.018 120.33C320.164 120.984 319.823 122.012 318.506 121.732C309.78 119.957 303.052 118.695 296.909 117.621C293.302 106.829 274.63 48.7576 274.386 48.1502L268.389 97.7186C267.902 101.736 267.171 107.903 268.633 112.575C268.877 113.603 268.341 113.836 267.561 113.743C259.663 112.856 249.766 112.014 243.038 111.641C241.771 111.547 242.209 110.379 242.356 110.099C244.55 105.848 245.525 99.7744 246.012 95.8031L255.421 17.3627C255.86 13.4383 256.689 7.87878 255.421 2.97334C255.129 1.99227 255.714 1.24477 256.933 1.33822C265.757 2.03898 276.287 3.11349 282.869 3.95444L305.246 72.5838L314.168 25.3515C315.922 18.1102 316.215 14.1858 315.484 10.168C315.338 9.4205 315.679 8.81318 316.849 9.00004C323.674 10.168 334.058 12.2236 341.371 13.7653C342.151 13.9055 342.297 14.653 341.663 15.2603C338.738 19.1847 338.105 22.8288 336.545 29.1825L320.359 107.016L320.456 107.156Z" fill="white"/>
<path d="M402.416 120.423C397.589 120.75 390.959 119.676 386.376 118.134C376.042 114.91 372.483 113.836 366.096 111.92L427.084 59.7359L426.695 39.5533C399.831 29.5555 382.331 24.4632 364.244 19.4644L357.711 40.0673C357.467 40.8145 357.906 41.5622 359.076 41.5157C363.805 41.3285 371.41 43.1505 375.31 44.2718C379.942 45.58 397.296 50.9527 400.906 52.2608L336.114 108.183L336.455 125.889C355.127 130.421 375.359 136.401 392.862 142.848L403.686 122.338C404.124 121.498 403.926 120.33 402.367 120.423H402.416Z" fill="white"/>
<path d="M112.435 119.348C109.607 115.423 107.608 110.284 106.34 104.865L84.061 30.8159C82.8909 26.3776 82.0132 21.1918 82.5009 16.3798C82.6469 15.7257 81.8668 15.2586 81.3308 15.3987C74.993 16.847 62.9512 19.9304 55.0534 22.0795C54.2245 22.3131 53.7372 22.9671 54.2733 23.8548C56.3699 27.1251 58.4173 32.0305 59.7338 37.4497L67.2416 61.6035C60.1238 63.3321 46.8631 67.0693 39.5505 69.2185L31.555 45.9526C29.4587 40.44 28.7274 36.6555 28.6299 31.8904C28.6299 31.8904 28.7762 30.1151 27.1673 30.5823C19.5621 33.0114 8.73911 37.0296 0.792541 39.926C-0.182497 40.2997 -0.231249 41.0938 0.500032 41.888C3.86392 45.8592 5.91151 50.2041 7.56905 55.016L32.4325 125.795C34.2851 130.607 35.894 135.232 35.7477 140.464C35.7477 140.931 35.9427 142.006 37.1615 141.586C44.4745 139.063 55.0046 135.512 62.9024 133.176C63.6337 132.943 63.8777 132.148 63.2437 131.541C60.465 128.318 57.9784 122.898 56.7111 119.301L46.327 89.027C57.4912 85.8034 62.9024 84.3085 73.4329 81.5988L82.3545 110.424C84.2558 117.806 84.6459 121.73 84.207 125.935C84.1582 126.496 84.6459 127.196 85.5235 126.963C93.0802 125 102.44 122.805 111.752 120.936C112.825 120.702 112.678 119.721 112.337 119.301L112.435 119.348Z" fill="white"/>
<path d="M124.328 161.497H133.493V155.89H124.328V152.293H134.127V146.687H117.795V171.448H134.42V165.701H124.328V161.497Z" fill="white"/>
<path d="M165.316 152.246H171.898V171.448H178.187V152.246H184.72V146.687H165.316V152.246Z" fill="white"/>
<path d="M161.908 163.833C161.908 168.832 157.959 171.822 152.011 171.822C147.672 171.822 143.528 170.467 140.506 167.757L144.308 163.273C146.746 165.188 149.427 166.216 152.255 166.216C154.059 166.216 155.034 165.609 155.034 164.534C155.034 163.459 154.205 162.899 150.89 162.104C145.673 160.937 141.627 159.488 141.627 154.349C141.627 149.817 145.235 146.5 151.133 146.5C155.277 146.5 158.544 147.622 161.225 149.771L157.813 154.536C155.57 152.948 153.132 152.107 150.939 152.107C149.281 152.107 148.501 152.854 148.501 153.742C148.501 154.863 149.33 155.331 152.742 156.125C158.398 157.339 161.908 159.255 161.908 163.833Z" fill="white"/>
<path d="M197.012 146.687H190.528V163.178H197.012C199.449 163.178 201.545 162.384 203.057 160.889C204.617 159.347 205.495 157.152 205.446 154.863C205.446 150.798 202.521 146.687 197.012 146.687ZM195.452 151.359H197.158C199.449 151.359 200.522 153.181 200.522 154.909C200.522 156.685 199.498 158.507 197.158 158.507H195.452V151.405V151.359Z" fill="white"/>
<path d="M193.599 168.972C193.599 167.431 194.915 166.169 196.524 166.169C198.133 166.169 199.449 167.431 199.449 168.972C199.449 170.514 198.133 171.776 196.524 171.776C194.915 171.776 193.599 170.514 193.599 168.972Z" fill="white"/>
<path d="M221.34 146.687V151.826H224.997V171.448H231.237V146.687H221.34Z" fill="white"/>
<path d="M257.663 160.704C257.029 159.676 256.054 158.788 254.787 158.181C255.761 157.527 256.444 156.826 256.932 156.079C257.516 155.098 257.858 154.07 257.858 152.995C257.858 151.08 257.126 149.538 255.615 148.277C254.104 147.015 251.764 146.408 248.595 146.408C246.206 146.408 244.305 146.922 242.842 147.903C240.99 149.211 240.063 150.893 240.063 152.948C240.063 154.21 240.405 155.284 241.039 156.265C241.526 156.966 242.257 157.62 243.281 158.181C241.916 158.742 240.941 159.489 240.307 160.517C239.673 161.498 239.332 162.759 239.332 164.161C239.332 165.562 239.673 166.964 240.356 168.179C241.039 169.393 242.062 170.281 243.378 170.888C244.695 171.496 246.596 171.823 249.131 171.823C250.447 171.823 251.715 171.683 252.885 171.402C254.055 171.122 255.03 170.702 255.859 170.141C256.639 169.58 257.322 168.739 257.858 167.665C258.394 166.59 258.686 165.469 258.686 164.207C258.686 162.946 258.394 161.778 257.76 160.704H257.663ZM248.888 150.8C250.35 150.8 251.569 151.967 251.569 153.369C251.569 154.77 250.35 155.938 248.888 155.938C247.425 155.938 246.206 154.77 246.206 153.369C246.206 151.967 247.376 150.8 248.888 150.8ZM248.888 167.011C247.132 167.011 245.767 165.609 245.767 163.927C245.767 162.246 247.181 160.844 248.888 160.844C250.594 160.844 252.008 162.246 252.008 163.927C252.008 165.609 250.594 167.011 248.888 167.011Z" fill="white"/>
<path d="M282.039 157.292C280.382 155.751 278.139 155.003 275.458 155.096L280.869 146.547H273.654L266.341 157.946C265.269 159.535 264.684 161.543 264.684 163.319C264.684 168.551 268.438 171.822 274.532 171.822C280.626 171.822 284.477 168.551 284.477 163.319C284.477 160.843 283.648 158.787 282.039 157.292ZM274.58 166.449C272.63 166.449 271.07 165.001 271.07 163.225C271.07 161.45 272.63 160.002 274.58 160.002C276.531 160.002 278.091 161.45 278.091 163.225C278.091 165.001 276.531 166.449 274.58 166.449Z" fill="white"/>
<path d="M299.444 146.36C293.302 146.36 289.499 149.631 289.499 154.91C289.499 157.386 290.328 159.442 291.888 160.89C293.545 162.432 295.885 163.179 298.664 163.085L293.009 171.448H300.224L307.488 160.376C308.707 158.554 309.243 156.919 309.292 154.863C309.292 149.584 305.489 146.314 299.396 146.314L299.444 146.36ZM299.444 158.134C297.494 158.134 295.934 156.685 295.934 154.91C295.934 153.135 297.494 151.686 299.444 151.686C301.394 151.686 302.954 153.135 302.954 154.91C302.954 156.685 301.394 158.134 299.444 158.134Z" fill="white"/>
</svg>
