<?xml version="1.0" encoding="utf-8"?>
<!-- Generator: Adobe Illustrator 27.6.1, SVG Export Plug-In . SVG Version: 6.00 Build 0)  -->
<svg version="1.1" id="Слой_1" xmlns="http://www.w3.org/2000/svg" xmlns:xlink="http://www.w3.org/1999/xlink" x="0px" y="0px"
	 viewBox="0 0 428 428" style="enable-background:new 0 0 428 428;" xml:space="preserve">
<style type="text/css">
	.st0{fill:#FFFFFF;}
	.st1{fill:none;stroke:#000000;stroke-miterlimit:10;}
	.st2{fill:#BF0A0A;}
</style>
<g>
	<rect class="st0" width="427.1" height="427.1"/>
	<rect class="st1" width="427.1" height="427.1"/>
	<rect class="st0" width="427.1" height="427.1"/>
	<rect class="st0" width="427.1" height="427.1"/>
</g>
<path class="st2" d="M186.1,217.4c0-0.7-0.8-1.4-1.6-0.8c-2.1,1.3-6.7,3.6-13.3,4.3l-24.1,2.6l-3.8-26.7c7.1-0.9,14.3-1.7,18.8-2.1
	c5-0.5,8.2,0.2,10.1,0.7c1.3,0.5,1.9-0.3,1.9-1.2l-1.9-21.9c-0.1-1.2-1-1.2-1.9-0.7c-1.6,0.9-4.2,1.7-10.4,2.3
	c-5.9,0.6-12.8,1.3-19.5,2.1l-3.2-22.6c2.9-0.4,12.5-2.1,24.3-3.2c8.6-0.9,13.6,0.1,15.4,0.6c1.1,0.4,1.5-0.3,1.5-0.9l-1.2-20.8
	c-24.6,1.6-46.1,4.7-68.4,8.5c-1.3,0.2-1.5,1.1-1,2c2.2,3.5,3,8.2,3.9,14.4l11.7,76.2c1.1,6.1,1.7,10.9,1.1,15
	c-0.2,1.3,0.8,1.6,1.8,1.4c19.6-3.3,41.5-5.9,61.5-6.9L186.1,217.4z"/>
<path class="st2" d="M198.5,238c1.9-4.6,1.9-10.3,1.9-15.9l-0.1-77.9c-0.1-4.9-0.5-9.8-2.1-14.5c-0.1-0.4-0.3-1.4,1-1.4
	c7.1-0.2,19-0.4,27.5-0.2c1.4,0,1.2,1.1,1.1,1.5c-1.8,5.7-1.7,8.8-1.9,13.9l-0.1,78.5c0,4.9,0.2,12.1,1.7,15.7
	c0.2,0.7,0.2,1.3-0.7,1.3c-9.9-0.2-18-0.1-27.5,0.3C198.4,239.4,198.1,238.8,198.5,238L198.5,238z"/>
<path class="st2" d="M320.5,235.2c-0.9,4.3-1.1,8.6-0.4,13.2c0.1,0.7-0.2,1.7-1.5,1.4c-8.7-1.8-15.5-3-21.6-4.1
	c-3.6-10.8-22.3-68.9-22.5-69.5l-6,49.6c-0.5,4-1.2,10.2,0.2,14.9c0.2,1-0.3,1.3-1.1,1.2c-7.9-0.9-17.8-1.7-24.5-2.1
	c-1.3-0.1-0.8-1.3-0.7-1.5c2.2-4.3,3.2-10.3,3.7-14.3l9.4-78.4c0.4-3.9,1.3-9.5,0-14.4c-0.3-1,0.3-1.7,1.5-1.6
	c8.8,0.7,19.4,1.8,25.9,2.6l22.4,68.6l8.9-47.2c1.8-7.2,2-11.2,1.3-15.2c-0.1-0.7,0.2-1.4,1.4-1.2c6.8,1.2,17.2,3.2,24.5,4.8
	c0.8,0.1,0.9,0.9,0.3,1.5c-2.9,3.9-3.6,7.6-5.1,13.9L320.4,235L320.5,235.2z"/>
<path class="st2" d="M402.4,248.4c-4.8,0.3-11.5-0.7-16-2.3c-10.3-3.2-13.9-4.3-20.3-6.2l61-52.2l-0.4-20.2
	c-26.9-10-44.4-15.1-62.5-20.1l-6.5,20.6c-0.2,0.7,0.2,1.5,1.4,1.4c4.7-0.2,12.3,1.6,16.2,2.8c4.6,1.3,22,6.7,25.6,8l-64.8,55.9
	l0.3,17.7c18.7,4.5,38.9,10.5,56.4,17l10.8-20.5C404.1,249.5,403.9,248.3,402.4,248.4L402.4,248.4z"/>
<path class="st2" d="M112.4,247.3c-2.8-3.9-4.8-9.1-6.1-14.5l-22.3-74c-1.2-4.4-2-9.6-1.6-14.4c0.1-0.7-0.6-1.1-1.2-1
	c-6.3,1.4-18.4,4.5-26.3,6.7c-0.8,0.2-1.3,0.9-0.8,1.8c2.1,3.3,4.1,8.2,5.5,13.6l7.5,24.2c-7.1,1.7-20.4,5.5-27.7,7.6l-8-23.3
	c-2.1-5.5-2.8-9.3-2.9-14.1c0,0,0.1-1.8-1.5-1.3c-7.6,2.4-18.4,6.4-26.4,9.3c-1,0.4-1,1.2-0.3,2c3.4,4,5.4,8.3,7.1,13.1l24.9,70.8
	c1.9,4.8,3.5,9.4,3.3,14.7c0,0.5,0.2,1.5,1.4,1.1c7.3-2.5,17.8-6.1,25.7-8.4c0.7-0.2,1-1,0.3-1.6c-2.8-3.2-5.3-8.6-6.5-12.2
	L46.3,217c11.2-3.2,16.6-4.7,27.1-7.4l8.9,28.8c1.9,7.4,2.3,11.3,1.9,15.5c0,0.6,0.4,1.3,1.3,1c7.6-2,16.9-4.2,26.2-6
	C112.8,248.7,112.7,247.7,112.4,247.3L112.4,247.3z"/>
<path class="st2" d="M124.3,289.5h9.2v-5.6h-9.2v-3.6h9.8v-5.6h-16.3v24.8h16.6v-5.7h-10.1C124.3,293.8,124.3,289.5,124.3,289.5z"/>
<path class="st2" d="M165.3,280.2h6.6v19.2h6.3v-19.2h6.5v-5.6h-19.4L165.3,280.2L165.3,280.2z"/>
<path class="st2" d="M161.9,291.8c0,5-3.9,8-9.9,8c-4.3,0-8.5-1.4-11.5-4.1l3.8-4.5c2.4,1.9,5.1,2.9,7.9,2.9c1.8,0,2.8-0.6,2.8-1.7
	s-0.8-1.6-4.1-2.4c-5.2-1.2-9.3-2.6-9.3-7.8c0-4.5,3.6-7.8,9.5-7.8c4.1,0,7.4,1.1,10.1,3.3l-3.4,4.8c-2.2-1.6-4.7-2.4-6.9-2.4
	c-1.7,0-2.4,0.7-2.4,1.6c0,1.1,0.8,1.6,4.2,2.4C158.4,285.3,161.9,287.3,161.9,291.8z"/>
<path class="st2" d="M197,274.7h-6.5v16.5h6.5c2.4,0,4.5-0.8,6-2.3c1.6-1.5,2.4-3.7,2.4-6C205.4,278.8,202.5,274.7,197,274.7z
	 M195.5,279.4h1.7c2.3,0,3.4,1.8,3.4,3.5c0,1.8-1,3.6-3.4,3.6h-1.7V279.4L195.5,279.4z"/>
<path class="st2" d="M193.6,297c0-1.5,1.3-2.8,2.9-2.8c1.6,0,2.9,1.3,2.9,2.8s-1.3,2.8-2.9,2.8C194.9,299.8,193.6,298.5,193.6,297z"
	/>
<path class="st2" d="M221.3,274.7v5.1h3.7v19.6h6.2v-24.8L221.3,274.7L221.3,274.7z"/>
<path class="st2" d="M257.7,288.7c-0.6-1-1.6-1.9-2.9-2.5c1-0.7,1.7-1.4,2.1-2.1c0.6-1,0.9-2,0.9-3.1c0-1.9-0.7-3.5-2.2-4.7
	c-1.5-1.3-3.9-1.9-7-1.9c-2.4,0-4.3,0.5-5.8,1.5c-1.9,1.3-2.8,3-2.8,5c0,1.3,0.3,2.3,1,3.3c0.5,0.7,1.2,1.4,2.2,1.9
	c-1.4,0.6-2.3,1.3-3,2.3c-0.6,1-1,2.2-1,3.6s0.3,2.8,1,4s1.7,2.1,3,2.7s3.2,0.9,5.8,0.9c1.3,0,2.6-0.1,3.8-0.4s2.1-0.7,3-1.3
	c0.8-0.6,1.5-1.4,2-2.5s0.8-2.2,0.8-3.5C258.7,290.9,258.4,289.8,257.7,288.7L257.7,288.7z M248.9,278.8c1.5,0,2.7,1.2,2.7,2.6
	s-1.2,2.6-2.7,2.6s-2.7-1.2-2.7-2.6S247.4,278.8,248.9,278.8z M248.9,295c-1.8,0-3.1-1.4-3.1-3.1s1.4-3.1,3.1-3.1
	c1.7,0,3.1,1.4,3.1,3.1S250.6,295,248.9,295z"/>
<path class="st2" d="M282,285.3c-1.7-1.5-3.9-2.3-6.6-2.2l5.4-8.5h-7.2l-7.3,11.4c-1.1,1.6-1.7,3.6-1.7,5.4c0,5.2,3.8,8.5,9.8,8.5
	c6.1,0,9.9-3.3,9.9-8.5C284.5,288.8,283.6,286.8,282,285.3z M274.6,294.4c-1.9,0-3.5-1.4-3.5-3.2c0-1.8,1.6-3.2,3.5-3.2
	c2,0,3.5,1.4,3.5,3.2S276.5,294.4,274.6,294.4z"/>
<path class="st2" d="M299.4,274.4c-6.1,0-9.9,3.3-9.9,8.6c0,2.5,0.8,4.5,2.4,6c1.7,1.5,4,2.3,6.8,2.2l-5.7,8.4h7.2l7.3-11.1
	c1.2-1.8,1.8-3.5,1.8-5.5C309.3,277.6,305.5,274.3,299.4,274.4L299.4,274.4z M299.4,286.1c-2,0-3.5-1.4-3.5-3.2s1.6-3.2,3.5-3.2
	s3.5,1.4,3.5,3.2S301.4,286.1,299.4,286.1z"/>
</svg>
