<svg width="19" height="19" viewBox="0 0 19 19" fill="none" xmlns="http://www.w3.org/2000/svg">
<path d="M7.34906 7.34905H2.15094C0.824528 7.34905 0 8.20943 0 9.5C0 10.7906 0.824528 11.6509 2.15094 11.6509H7.34906V16.8491C7.34906 18.1396 8.17358 19 9.5 19C10.8264 19 11.6509 18.1396 11.6509 16.8491V11.6509H16.8491C18.1755 11.6509 19 10.7906 19 9.5C19 8.20943 18.1755 7.34905 16.8491 7.34905H11.6509V2.15094C11.6509 0.860377 10.8264 0 9.5 0C8.17358 0 7.34906 0.860377 7.34906 2.15094V7.34905Z" fill="#0054A4"/>
</svg>
