<svg width="31" height="35" viewBox="0 0 31 35" fill="none" xmlns="http://www.w3.org/2000/svg">
<path d="M20.625 0.812537C19.2698 0.80891 17.9272 1.07389 16.675 1.59216C15.4227 2.11043 14.2856 2.87172 13.3293 3.83204L0.693024 16.471C0.305377 16.858 0.0873086 17.383 0.0867929 17.9307C0.0862772 18.4784 0.303355 19.0039 0.690273 19.3915C1.07719 19.7792 1.60225 19.9972 2.14995 19.9978C2.69765 19.9983 3.22313 19.7812 3.61077 19.3943L16.2525 6.74979C17.4285 5.66864 18.9768 5.08374 20.5739 5.11728C22.1711 5.15083 23.6934 5.80023 24.823 6.9298C25.9526 8.05938 26.602 9.58175 26.6355 11.1789C26.6691 12.776 26.0842 14.3243 25.003 15.5003L10.4198 30.0835C10.0288 30.4479 9.51166 30.6462 8.97734 30.6368C8.44301 30.6273 7.9332 30.4109 7.55531 30.033C7.17743 29.6551 6.96097 29.1453 6.95154 28.611C6.94211 28.0766 7.14045 27.5595 7.50477 27.1685L22.088 12.5853C22.4757 12.198 22.6936 11.6726 22.6939 11.1246C22.6941 10.5767 22.4767 10.0511 22.0894 9.66341C21.7021 9.27577 21.1767 9.05784 20.6287 9.05758C20.0808 9.05733 19.5552 9.27475 19.1675 9.66204L4.58152 24.2508C3.50037 25.4268 2.91547 26.9751 2.94902 28.5722C2.98257 30.1693 3.63196 31.6917 4.76154 32.8213C5.89112 33.9508 7.41349 34.6002 9.0106 34.6338C10.6077 34.6673 12.156 34.0824 13.332 33.0013L27.9153 18.418C28.8763 17.4626 29.6382 16.3261 30.157 15.0743C30.6757 13.8224 30.941 12.4801 30.9375 11.125C30.9346 8.39089 29.8472 5.76955 27.9138 3.83621C25.9805 1.90288 23.3592 0.815449 20.625 0.812537Z" fill="#26C87F"/>
</svg>
