<svg width="32" height="35" viewBox="0 0 32 35" fill="none" xmlns="http://www.w3.org/2000/svg">
<path d="M21.125 0.812537C19.7698 0.80891 18.4272 1.07389 17.175 1.59216C15.9227 2.11043 14.7856 2.87172 13.8293 3.83204L1.19302 16.471C0.805377 16.858 0.587309 17.383 0.586793 17.9307C0.586277 18.4784 0.803355 19.0039 1.19027 19.3915C1.57719 19.7792 2.10225 19.9972 2.64995 19.9978C3.19765 19.9983 3.72313 19.7812 4.11077 19.3943L16.7525 6.74979C17.9285 5.66864 19.4768 5.08374 21.0739 5.11728C22.6711 5.15083 24.1934 5.80023 25.323 6.9298C26.4526 8.05938 27.102 9.58175 27.1355 11.1789C27.1691 12.776 26.5842 14.3243 25.503 15.5003L10.9198 30.0835C10.5288 30.4479 10.0117 30.6462 9.47734 30.6368C8.94301 30.6273 8.4332 30.4109 8.05531 30.033C7.67743 29.6551 7.46097 29.1453 7.45154 28.611C7.44211 28.0766 7.64045 27.5595 8.00477 27.1685L22.588 12.5853C22.9757 12.198 23.1936 11.6726 23.1939 11.1246C23.1941 10.5767 22.9767 10.0511 22.5894 9.66341C22.2021 9.27577 21.6767 9.05784 21.1287 9.05758C20.5808 9.05733 20.0552 9.27475 19.6675 9.66204L5.08152 24.2508C4.00037 25.4268 3.41547 26.9751 3.44902 28.5722C3.48257 30.1693 4.13196 31.6917 5.26154 32.8213C6.39112 33.9508 7.91349 34.6002 9.5106 34.6338C11.1077 34.6673 12.656 34.0824 13.832 33.0013L28.4153 18.418C29.3763 17.4626 30.1382 16.3261 30.657 15.0743C31.1757 13.8224 31.441 12.4801 31.4375 11.125C31.4346 8.39089 30.3472 5.76955 28.4138 3.83621C26.4805 1.90288 23.8592 0.815449 21.125 0.812537Z" fill="white"/>
</svg>
