<svg width="753" height="48" viewBox="0 0 753 48" fill="none" xmlns="http://www.w3.org/2000/svg">
<path d="M24.6777 25.22L35.8317 0.799997H46.8537L29.0997 36.506C25.0737 44.558 20.4537 47.726 13.9857 47.726C10.0257 47.726 6.92366 46.67 4.01966 45.02L7.97966 37.562C9.82766 38.684 11.6757 39.08 13.4577 39.08C15.3057 39.08 17.4177 38.222 19.2657 35.384L0.785656 0.799997H12.1377L24.6777 25.22ZM77.2584 47.792C63.6624 47.792 53.5644 37.298 53.5644 23.9C53.5644 10.766 63.4644 0.00799918 77.6544 0.00799918C86.3664 0.00799918 91.2504 3.308 95.5404 7.532L89.4684 14.528C85.9044 11.294 82.8684 9.38 77.5884 9.38C69.8004 9.38 64.1904 15.848 64.1904 23.9C64.1904 31.82 69.6684 38.42 77.5884 38.42C82.8684 38.42 86.1024 36.308 89.7324 33.008L96.2004 39.938C91.4484 45.02 86.1684 47.792 77.2584 47.792ZM112.475 0.799997H145.475V47H135.311V9.974H121.979V13.472C121.979 40.664 117.557 47.594 106.997 47.594C105.347 47.594 102.905 47.33 101.651 47L102.311 38.618C102.773 38.684 103.235 38.75 103.895 38.75C109.373 38.75 112.475 35.252 112.475 10.37V0.799997ZM180.986 47.792C166.73 47.792 156.5 37.166 156.5 23.9C156.5 10.766 166.862 0.00799918 181.118 0.00799918C195.374 0.00799918 205.604 10.634 205.604 23.9C205.604 37.034 195.242 47.792 180.986 47.792ZM181.118 38.42C189.302 38.42 194.978 31.952 194.978 23.9C194.978 15.98 189.17 9.38 180.986 9.38C172.802 9.38 167.126 15.848 167.126 23.9C167.126 31.82 172.934 38.42 181.118 38.42ZM216.62 47V0.799997H238.07C243.35 0.799997 247.508 2.252 250.148 4.892C252.26 7.004 253.316 9.578 253.316 12.878C253.316 18.092 250.544 20.996 247.244 22.844C252.59 24.89 255.89 27.992 255.89 34.328C255.89 42.776 249.026 47 238.598 47H216.62ZM226.52 19.478H235.892C240.38 19.478 243.218 18.026 243.218 14.462C243.218 11.426 240.842 9.71 236.552 9.71H226.52V19.478ZM226.52 38.09H238.598C243.086 38.09 245.792 36.506 245.792 32.942C245.792 29.84 243.482 27.926 238.268 27.926H226.52V38.09ZM306.049 0.799997V47H296.017V16.706L275.821 47H266.251V0.799997H276.283V31.094L296.611 0.799997H306.049ZM355.733 0.799997V47H345.569V32.216H337.583L327.683 47H315.803L327.089 30.5C321.215 28.322 317.189 23.636 317.189 16.046C317.189 6.476 323.789 0.799997 334.613 0.799997H355.733ZM335.273 23.24H345.569V9.974H335.471C330.521 9.974 327.485 12.218 327.485 16.706C327.485 20.6 330.323 23.24 335.273 23.24ZM410.187 25.22L421.341 0.799997H432.363L414.609 36.506C410.583 44.558 405.963 47.726 399.495 47.726C395.535 47.726 392.433 46.67 389.529 45.02L393.489 37.562C395.337 38.684 397.185 39.08 398.967 39.08C400.815 39.08 402.927 38.222 404.775 35.384L386.295 0.799997H397.647L410.187 25.22ZM467.916 47V29.774C464.814 31.292 460.392 33.206 455.706 33.206C446.532 33.206 440.196 28.388 440.196 17.696V0.799997H450.36V14.726C450.36 20.468 452.604 23.702 457.818 23.702C461.91 23.702 465.804 22.382 467.916 20.732V0.799997H478.08V47H467.916ZM487.178 47L506.978 0.469997H516.35L536.15 47H525.524L521.3 36.638H501.764L497.54 47H487.178ZM505.394 27.662H517.67L511.532 12.68L505.394 27.662ZM566.928 47.792C553.332 47.792 543.234 37.298 543.234 23.9C543.234 10.766 553.134 0.00799918 567.324 0.00799918C576.036 0.00799918 580.92 3.308 585.21 7.532L579.138 14.528C575.574 11.294 572.538 9.38 567.258 9.38C559.47 9.38 553.86 15.848 553.86 23.9C553.86 31.82 559.338 38.42 567.258 38.42C572.538 38.42 575.772 36.308 579.402 33.008L585.87 39.938C581.118 45.02 575.838 47.792 566.928 47.792ZM606.765 47V10.172H592.707V0.799997H630.987V10.172H616.929V47H606.765ZM680.602 0.799997V47H670.57V16.706L650.374 47H640.804V0.799997H650.836V31.094L671.164 0.799997H680.602ZM730.286 0.799997V47H720.122V32.216H712.136L702.236 47H690.356L701.642 30.5C695.768 28.322 691.742 23.636 691.742 16.046C691.742 6.476 698.342 0.799997 709.166 0.799997H730.286ZM709.826 23.24H720.122V9.974H710.024C705.074 9.974 702.038 12.218 702.038 16.706C702.038 20.6 704.876 23.24 709.826 23.24ZM742.295 22.184V11.624H752.987V22.184H742.295ZM742.295 47V36.44H752.987V47H742.295Z" fill="white"/>
</svg>
