<svg width="321" height="87" viewBox="0 0 321 87" fill="none" xmlns="http://www.w3.org/2000/svg">
<g clip-path="url(#clip0_1964_541)">
<rect x="0.601074" width="320" height="87" rx="10" fill="white"/>
</g>
<g clip-path="url(#clip1_1964_541)">
<path d="M218.995 37.2221C218.995 34.0531 218.63 30.5315 216.639 26.6532C214.698 22.8662 211.968 20.4936 210.421 19.1705C207.045 16.2877 203.768 14.8401 200.927 13.5874C200.35 13.3344 197.99 12.3016 194.854 11.3517C186.235 8.74267 176.292 8.11219 172.165 7.92554H147.933C147.933 7.92554 147.933 7.95042 147.933 7.96287H102.207V49.7777C102.207 52.9467 102.572 56.4683 104.563 60.3465C106.504 64.1336 109.234 66.5062 110.781 67.8293C114.157 70.7121 117.434 72.1597 120.275 73.4124C120.852 73.6654 123.212 74.6982 126.348 75.6481C134.967 78.2571 144.91 78.8917 149.037 79.0742H173.31C173.31 79.0742 173.306 79.0494 173.302 79.0369H218.991V37.2221H218.995Z" fill="white"/>
<path d="M107.682 39.686C108.964 38.2758 110.246 36.8613 111.523 35.4511C111.793 31.7428 112.062 28.0305 112.332 24.3223C112.991 27.2216 113.651 30.121 114.306 33.0162L116.426 31.5479C116.969 28.5033 117.513 25.4546 118.056 22.4101C118.355 24.9942 118.649 27.5825 118.948 30.1666C119.906 29.6689 120.868 29.167 121.826 28.6693C121.366 23.0447 120.901 17.4202 120.441 11.7915H117.023C116.372 15.4209 115.721 19.0503 115.07 22.6756C114.431 19.0545 113.796 15.4292 113.157 11.8081H109.752C109.063 21.0994 108.371 30.3948 107.682 39.686Z" fill="#1D30A7"/>
<path d="M122.942 28.1754C125.211 27.3832 127.48 26.5909 129.749 25.7987C129.757 24.7202 129.77 23.6418 129.778 22.5633C128.608 22.8039 127.435 23.0445 126.265 23.2851C126.265 22.4264 126.265 21.572 126.265 20.7134C127.314 20.4479 128.364 20.1824 129.413 19.917C129.413 19.0127 129.417 18.1085 129.421 17.2001L126.29 17.4158C126.286 16.5074 126.281 15.599 126.273 14.6906C127.435 14.6823 128.596 14.6699 129.757 14.6616C129.757 13.7034 129.757 12.7453 129.757 11.7871H122.963C122.963 17.2499 122.955 22.7085 122.951 28.1713L122.942 28.1754Z" fill="#1D30A7"/>
<path d="M130.674 11.7913H139.372V14.6657C138.493 14.6657 137.617 14.6657 136.738 14.6657V24.3096C135.618 24.5294 134.502 24.7493 133.382 24.9691V14.6657H130.678C130.678 13.7076 130.678 12.7494 130.674 11.7913Z" fill="#1D30A7"/>
<path d="M140.276 23.7206C141.392 23.5754 142.512 23.4302 143.628 23.2809C143.628 21.9619 143.628 20.6428 143.628 19.3238C143.897 19.3238 144.163 19.3321 144.432 19.3363C144.548 19.3446 144.719 19.3487 144.926 19.3363C145.241 19.3155 147.12 19.2035 148.141 17.6854C148.759 16.7646 148.75 15.7981 148.742 15.5202C148.73 15.0183 148.618 14.6077 148.526 14.3505C148.435 14.085 148.228 13.5168 147.705 12.9941C147.211 12.5047 146.697 12.3139 146.299 12.1646C145.913 12.0194 145.266 11.8369 144.424 11.8535C143.039 11.8327 141.657 11.8078 140.272 11.7871C140.272 15.7649 140.272 19.7386 140.272 23.7164L140.276 23.7206Z" fill="#1D30A7"/>
<path d="M143.645 14.1475C143.985 14.1516 144.188 14.1475 144.669 14.1641C145.15 14.1806 146.121 14.3631 146.357 15.5329C146.353 16.91 144.719 16.9141 144.719 16.9141C144.719 16.9141 144.001 16.9141 143.645 16.9182V14.1433V14.1475Z" fill="white"/>
<path d="M149.46 16.8601C149.576 13.9151 152.285 11.7457 154.989 11.7872C157.66 11.8328 160.34 14.0354 160.369 17.0384C160.394 20.0788 157.693 22.356 155.001 22.3934C152.143 22.4348 149.34 19.9502 149.46 16.8559V16.8601Z" fill="#1D30A7"/>
<path d="M154.989 14.6535C156.08 14.6991 157.324 15.7029 157.307 17.0551C157.291 18.3949 156.05 19.3365 154.989 19.3779C153.827 19.4236 152.504 18.4073 152.487 17.0551C152.471 15.6863 153.802 14.6037 154.989 14.6535Z" fill="white"/>
<path d="M160.365 75.2332C161.476 75.2332 162.588 75.2291 163.704 75.2249V67.6343C164.836 67.6219 165.969 67.6136 167.101 67.6011C167.101 70.1438 167.097 72.6823 167.093 75.2249C168.213 75.2208 169.337 75.2166 170.457 75.2125C170.457 71.6204 170.457 68.0283 170.457 64.4363C167.097 64.5732 163.733 64.71 160.373 64.8428V75.2291L160.365 75.2332Z" fill="#1D30A7"/>
<path d="M171.456 68.9368C171.112 72.11 173.646 75.337 176.898 75.3039C179.893 75.2707 182.332 72.4833 182.253 69.4429C182.178 66.5725 179.868 63.922 176.89 63.893C174.015 63.8681 171.747 66.2988 171.456 68.941V68.9368Z" fill="#1D30A7"/>
<path d="M174.55 69.3764C174.521 70.8365 175.662 71.9854 176.902 71.9937C178.076 71.9979 179.167 70.9775 179.254 69.6294C179.349 68.1569 178.2 66.8877 176.902 66.8835C175.703 66.8835 174.579 67.962 174.55 69.3764Z" fill="white"/>
<path d="M182.701 71.4628V75.2374C183.141 75.312 183.991 75.395 184.949 75.0507C184.949 75.0507 185.472 74.8599 185.937 74.5364C187.003 73.7898 187.753 71.9439 187.836 69.6875V64.9755C188.575 64.7723 189.313 64.569 190.051 64.3658V75.2374C191.167 75.2374 192.287 75.2374 193.403 75.2374C193.403 70.2889 193.403 65.3364 193.399 60.3879C192.776 60.5787 192.034 60.8027 191.192 61.0392C190.856 61.1346 189.939 61.3876 188.716 61.6904C187.6 61.9683 186.181 62.296 184.51 62.6278V69.5548C184.522 69.6958 184.568 70.4673 184.033 71.019C183.933 71.1185 183.676 71.384 183.253 71.4669C183.025 71.5126 182.834 71.4877 182.709 71.4669L182.701 71.4628Z" fill="#1D30A7"/>
<path d="M194.983 59.8654C196.107 59.4423 197.227 59.0193 198.351 58.5962C198.347 61.4748 198.339 64.3493 198.335 67.2279C199.629 63.7437 200.923 60.2595 202.217 56.7711C203.279 56.1531 204.345 55.535 205.407 54.917C205.407 61.6863 205.398 68.4598 205.394 75.2292H202.043C202.043 72.1929 202.043 69.1525 202.047 66.1163C200.919 69.1525 199.791 72.1929 198.662 75.2292H194.979C194.979 70.1066 194.979 64.9839 194.979 59.8613L194.983 59.8654Z" fill="#1D30A7"/>
<path d="M160.365 62.91C188.342 62.91 211.023 54.2598 211.023 43.5892C211.023 32.9186 188.342 24.2683 160.365 24.2683C132.387 24.2683 109.707 32.9186 109.707 43.5892C109.707 54.2598 132.387 62.91 160.365 62.91Z" fill="#52A42E"/>
<path d="M160.364 25.0979C187.886 25.0979 210.193 33.3771 210.193 43.5892C210.193 53.8013 187.886 62.0804 160.364 62.0804C132.843 62.0804 110.532 53.8013 110.532 43.5892C110.532 33.3771 132.839 25.0979 160.36 25.0979M160.36 23.4387C146.859 23.4387 134.141 25.4007 124.547 28.9596C114.439 32.7134 108.873 37.9066 108.873 43.5933C108.873 49.2801 114.439 54.4732 124.547 58.2271C134.137 61.7859 146.859 63.7479 160.36 63.7479C173.862 63.7479 186.579 61.7859 196.173 58.2271C206.282 54.4732 211.848 49.2801 211.848 43.5933C211.848 37.9066 206.282 32.7134 196.173 28.9596C186.583 25.4007 173.862 23.4387 160.36 23.4387Z" fill="white"/>
<path d="M160.36 25.6164C171.717 25.6164 180.955 33.6799 180.955 43.5892C180.955 53.4985 171.717 61.562 160.36 61.562C149.003 61.562 139.766 53.4985 139.766 43.5892C139.766 33.6799 149.003 25.6164 160.36 25.6164ZM160.36 25.0979C148.701 25.0979 139.248 33.3771 139.248 43.5892C139.248 53.8013 148.701 62.0805 160.36 62.0805C172.02 62.0805 181.473 53.8013 181.473 43.5892C181.473 33.3771 172.02 25.0979 160.36 25.0979Z" fill="white"/>
<path d="M110.532 43.5974H210.193" stroke="white" stroke-width="1.25" stroke-miterlimit="10"/>
<path d="M160.365 25.2307V61.9603" stroke="white" stroke-width="1.25" stroke-miterlimit="10"/>
<path d="M160.369 25.6164C179.366 25.6164 194.821 33.6799 194.821 43.5892C194.821 53.4985 179.366 61.562 160.369 61.562C141.371 61.562 125.916 53.4985 125.916 43.5892C125.916 33.6799 141.371 25.6164 160.369 25.6164ZM160.369 25.0979C141.056 25.0979 125.398 33.3771 125.398 43.5892C125.398 53.8013 141.056 62.0805 160.369 62.0805C179.681 62.0805 195.34 53.8013 195.34 43.5892C195.34 33.3771 179.681 25.0979 160.369 25.0979Z" fill="white"/>
<path d="M115.746 35.1689C115.912 35.1896 116.077 35.2145 116.243 35.2353C133.793 38.1969 148.842 38.9601 160.364 38.9393C180.631 38.9061 196.704 36.4506 204.639 35.2062C204.929 35.1606 205.17 35.1233 205.332 35.0984" stroke="white" stroke-width="1.25" stroke-miterlimit="10" stroke-linecap="square"/>
<path d="M128.359 29.2251C128.55 29.2707 128.745 29.3122 128.936 29.3578C142.043 31.9212 152.795 32.4273 160.36 32.3692C173.605 32.2655 186.214 30.3533 192.104 29.4615C192.515 29.3993 192.855 29.3454 193.087 29.3122" stroke="white" stroke-width="1.25" stroke-miterlimit="10" stroke-linecap="square"/>
<path d="M192.718 57.8247C192.453 57.7667 192.187 57.7044 191.926 57.6464C179.333 55.2406 168.594 54.6392 160.526 54.6392C146.241 54.6392 134.739 56.5389 128.783 57.5468C128.202 57.6464 127.721 57.7293 127.393 57.7874" stroke="white" stroke-width="1.25" stroke-miterlimit="10" stroke-linecap="square"/>
<path d="M157.942 64.8139C153.678 64.7019 150.007 64.3991 147.096 64.0797C140.247 63.3289 135.353 62.2505 134.133 61.9726C130.002 61.0393 127.41 60.1931 126.684 59.9526C122.93 58.7082 120.445 57.5219 119.649 57.132C118.579 56.6094 117.699 56.1821 116.534 55.477C112.208 52.8555 110.291 50.2631 109.744 49.4833C109.308 48.857 109.064 48.4048 108.91 48.1062C108.114 46.5176 107.886 45.0451 107.819 44.0579C106.392 46.4139 106.077 48.5085 105.998 49.6575C105.704 54.0045 107.935 57.3975 108.748 58.6128C109.437 59.6373 111.167 61.9933 116.799 65.3158C118.176 66.1246 122.611 68.6631 129.724 70.8905C134.299 72.3216 137.742 72.9272 142.545 73.7733C147.73 74.6859 150.961 74.943 152.944 75.055C154.989 75.1712 156.71 75.1878 157.946 75.1795V64.8139H157.942Z" fill="#1D30A7"/>
<path d="M205.125 51.943C204.959 51.9222 204.793 51.8973 204.627 51.8766C187.077 48.915 172.029 48.1518 160.506 48.1725C140.239 48.2057 124.166 50.6613 116.231 51.9056C115.941 51.9513 115.7 51.9886 115.539 52.0135" stroke="white" stroke-width="1.25" stroke-miterlimit="10" stroke-linecap="square"/>
<path d="M162.808 22.4101C167.072 22.5221 170.743 22.8249 173.655 23.1443C180.503 23.8951 185.397 24.9735 186.617 25.2514C190.748 26.1847 193.34 27.0309 194.066 27.2714C197.82 28.5158 200.305 29.7021 201.101 30.092C202.171 30.6146 203.051 31.0419 204.216 31.747C208.542 34.3685 210.459 36.9609 211.006 37.7407C211.442 38.367 211.687 38.8192 211.84 39.1178C212.636 40.7064 212.865 42.1789 212.931 43.1661C214.358 40.8101 214.673 38.7155 214.752 37.5665C215.046 33.2195 212.815 29.8265 212.002 28.6112C211.313 27.5867 209.584 25.2307 203.951 21.9082C202.574 21.0994 198.14 18.5609 191.026 16.3335C186.451 14.9024 183.008 14.2968 178.205 13.4507C173.02 12.5381 169.789 12.281 167.806 12.169C165.761 12.0528 164.04 12.0362 162.804 12.0445V22.4101H162.808Z" fill="#1D30A7"/>
<path d="M215.345 66.2575V73.8523C214.926 74.2878 213.885 75.2418 212.487 75.246C210.533 75.2584 209.604 73.9103 208.55 72.4627C207.543 70.7745 206.622 67.0082 206.543 62.7898C206.518 61.3754 206.58 59.1439 207.273 56.6344C207.472 55.9168 208.161 53.5484 209.928 51.0804C210.886 49.7447 211.483 49.1018 212.483 48.8944C213.777 48.6248 214.922 49.3424 215.341 49.641C215.341 52.5529 215.336 55.4605 215.332 58.3723C215 58.3723 214.669 58.3723 214.337 58.3723C213.926 56.933 213.569 56.0454 213.267 55.5227C212.976 55.0209 212.719 54.8466 212.503 54.8508C211.52 54.8798 210.566 59.0277 210.624 62.8147C210.67 65.9091 211.413 69.9989 212.479 70.0486C212.893 70.0694 213.549 69.4762 214.47 66.2575C214.76 66.2575 215.054 66.2575 215.345 66.2575Z" fill="#1D30A7"/>
</g>
<defs>
<clipPath id="clip0_1964_541">
<rect width="320" height="87" fill="white" transform="translate(0.601074)"/>
</clipPath>
<clipPath id="clip1_1964_541">
<rect width="117.203" height="71.5635" fill="white" transform="translate(102 7.71826)"/>
</clipPath>
</defs>
</svg>
