<svg width="571" height="28" viewBox="0 0 571 28" fill="none" xmlns="http://www.w3.org/2000/svg">
<path d="M18.9198 2V23H14.3598V9.23L5.17981 23H0.829815V2H5.38981V15.77L14.6298 2H18.9198ZM31.1018 23.36C26.2718 23.36 22.7318 19.64 22.7318 14.99C22.7318 10.4 26.2418 6.62 31.1618 6.62C34.1918 6.62 36.0518 7.76 37.5518 9.44L34.8818 12.14C33.8918 11.21 32.9318 10.55 31.1318 10.55C28.8518 10.55 27.2318 12.56 27.2318 14.99C27.2318 17.45 28.8218 19.43 31.3118 19.43C32.8418 19.43 33.8918 18.77 35.0018 17.72L37.6718 20.42C36.1118 22.13 34.3118 23.36 31.1018 23.36ZM55.278 6.92V23H50.718V10.82H45.228V23H40.668V6.92H55.278ZM67.2669 23.36C62.2869 23.36 58.5969 19.67 58.5969 14.99C58.5969 10.37 62.3169 6.62 67.3269 6.62C72.3069 6.62 75.9969 10.31 75.9969 14.99C75.9969 19.61 72.2769 23.36 67.2669 23.36ZM67.3269 19.43C69.9369 19.43 71.4969 17.42 71.4969 14.99C71.4969 12.62 69.7869 10.55 67.2669 10.55C64.6569 10.55 63.0969 12.56 63.0969 14.99C63.0969 17.36 64.8069 19.43 67.3269 19.43ZM81.2363 6.92H94.1663V23H89.6063V10.82H85.5263C85.5263 21.47 83.6963 23.18 79.6763 23.18C79.0763 23.18 77.9663 23.06 77.3663 22.91L77.6663 19.22C77.8463 19.25 78.4163 19.31 78.6263 19.31C80.3363 19.31 81.2363 18.32 81.2363 6.92ZM98.2596 23V6.92H102.82V12.23H106.12C109.84 12.23 112.54 13.94 112.54 17.54C112.54 20.93 110.23 23 106.36 23H98.2596ZM105.67 15.68H102.82V19.4H105.7C107.2 19.4 107.95 18.71 107.95 17.48C107.95 16.37 107.17 15.68 105.67 15.68ZM116.141 12.02L114.191 9.23C115.811 7.73 118.181 6.71 120.971 6.71C124.451 6.71 127.091 8.57 127.091 11.06C127.091 12.98 126.041 14.06 124.631 14.69C126.311 15.29 127.481 16.43 127.481 18.44C127.481 21.23 124.811 23.36 121.001 23.36C117.911 23.36 115.511 22.43 113.681 20.81L115.781 17.9C117.101 19.04 118.871 19.73 120.611 19.73C121.991 19.73 122.981 18.95 122.981 18.02C122.981 17.12 122.051 16.37 120.311 16.37H118.421V13.52H120.281C121.721 13.52 122.591 12.77 122.591 11.87C122.591 11.03 121.721 10.34 120.491 10.34C118.751 10.34 117.251 10.97 116.141 12.02ZM134.742 27.89C133.092 27.89 131.862 27.47 130.692 26.78L132.222 23.48C132.822 23.84 133.572 24.11 134.172 24.11C134.952 24.11 135.372 23.87 135.762 23.06L129.462 6.92H134.292L137.952 17.87L141.462 6.92H146.202L140.022 23.39C138.792 26.66 137.472 27.89 134.742 27.89ZM163.878 6.92V23H159.468V13.64L153.198 23H148.908V6.92H153.318V16.31L159.588 6.92H163.878ZM156.528 5.39C153.768 5.39 151.908 3.71 151.488 0.829999L154.158 0.349998C154.548 1.58 155.268 2.36 156.528 2.36C157.788 2.36 158.508 1.58 158.898 0.349998L161.568 0.829999C161.148 3.71 159.288 5.39 156.528 5.39ZM180.538 6.92V10.82H175.768V23H171.148V10.82H166.378V6.92H180.538ZM190.664 23.36C185.834 23.36 182.264 19.97 182.264 14.99C182.264 10.4 185.534 6.62 190.214 6.62C195.584 6.62 198.044 10.79 198.044 15.35C198.044 15.71 198.014 16.13 197.984 16.55H186.794C187.244 18.62 188.684 19.7 190.724 19.7C192.254 19.7 193.364 19.22 194.624 18.05L197.234 20.36C195.734 22.22 193.574 23.36 190.664 23.36ZM186.734 13.7H193.604C193.334 11.66 192.134 10.28 190.214 10.28C188.324 10.28 187.094 11.63 186.734 13.7ZM226.222 10.55C225.412 10.55 224.872 10.88 224.272 11.33V18.68C224.872 19.13 225.412 19.4 226.222 19.4C228.472 19.4 229.642 17.72 229.642 14.99C229.642 12.35 228.442 10.55 226.222 10.55ZM224.272 27.8H219.682V21.92C219.052 22.61 217.702 23.21 216.262 23.21C212.452 23.21 209.752 20.21 209.752 14.99C209.752 9.8 212.452 6.74 216.292 6.74C217.732 6.74 219.052 7.49 219.682 8.24V2H224.272V8.24C224.902 7.49 226.222 6.74 227.662 6.74C231.502 6.74 234.202 9.8 234.202 14.99C234.202 20.21 231.502 23.21 227.692 23.21C226.252 23.21 224.902 22.61 224.272 21.92V27.8ZM217.732 10.55C215.512 10.55 214.312 12.35 214.312 14.99C214.312 17.72 215.482 19.4 217.732 19.4C218.542 19.4 219.082 19.13 219.682 18.68V11.33C219.082 10.88 218.542 10.55 217.732 10.55ZM245.479 23.36C240.499 23.36 236.809 19.67 236.809 14.99C236.809 10.37 240.529 6.62 245.539 6.62C250.519 6.62 254.209 10.31 254.209 14.99C254.209 19.61 250.489 23.36 245.479 23.36ZM245.539 19.43C248.149 19.43 249.709 17.42 249.709 14.99C249.709 12.62 247.999 10.55 245.479 10.55C242.869 10.55 241.309 12.56 241.309 14.99C241.309 17.36 243.019 19.43 245.539 19.43ZM257.528 27.8V6.92H262.088V9.23C263.198 7.73 264.728 6.62 267.098 6.62C270.848 6.62 274.418 9.56 274.418 14.99C274.418 20.36 270.908 23.3 267.098 23.3C264.668 23.3 263.168 22.19 262.088 20.9V27.8H257.528ZM265.928 19.43C268.058 19.43 269.858 17.69 269.858 14.93C269.858 12.26 268.058 10.49 265.928 10.49C263.798 10.49 262.028 12.26 262.028 14.99C262.028 17.66 263.798 19.43 265.928 19.43ZM277.79 23V6.92H282.41L286.76 13.67L291.17 6.92H295.79V23H291.17V13.34L286.7 19.94L282.29 13.43V23H277.79ZM303.737 27.89C302.087 27.89 300.857 27.47 299.687 26.78L301.217 23.48C301.817 23.84 302.567 24.11 303.167 24.11C303.947 24.11 304.367 23.87 304.757 23.06L298.457 6.92H303.287L306.947 17.87L310.457 6.92H315.197L309.017 23.39C307.787 26.66 306.467 27.89 303.737 27.89ZM334.805 23.36C329.825 23.36 326.135 19.67 326.135 14.99C326.135 10.37 329.855 6.62 334.865 6.62C339.845 6.62 343.535 10.31 343.535 14.99C343.535 19.61 339.815 23.36 334.805 23.36ZM334.865 19.43C337.475 19.43 339.035 17.42 339.035 14.99C339.035 12.62 337.325 10.55 334.805 10.55C332.195 10.55 330.635 12.56 330.635 14.99C330.635 17.36 332.345 19.43 334.865 19.43ZM354.864 19.43C357.204 19.43 358.734 17.6 358.734 15.29C358.734 12.98 357.054 11.09 354.804 11.09C352.494 11.09 350.934 12.95 350.934 15.29C350.934 17.57 352.614 19.43 354.864 19.43ZM354.804 23.36C349.374 23.36 346.404 19.94 346.404 13.76C346.404 8.93 347.124 3.8 353.154 2.69L361.764 1.1L362.484 4.7L353.664 6.44C350.694 7.04 349.884 8.69 349.764 10.22C350.364 9.17 352.314 7.52 355.614 7.52C359.694 7.52 363.234 10.82 363.234 15.23C363.234 19.67 359.694 23.36 354.804 23.36ZM366.501 27.8V6.92H371.061V9.23C372.171 7.73 373.701 6.62 376.071 6.62C379.821 6.62 383.391 9.56 383.391 14.99C383.391 20.36 379.881 23.3 376.071 23.3C373.641 23.3 372.141 22.19 371.061 20.9V27.8H366.501ZM374.901 19.43C377.031 19.43 378.831 17.69 378.831 14.93C378.831 12.26 377.031 10.49 374.901 10.49C372.771 10.49 371.001 12.26 371.001 14.99C371.001 17.66 372.771 19.43 374.901 19.43ZM391.322 23.3C388.292 23.3 385.802 21.56 385.802 18.32C385.802 14.81 388.472 13.19 392.282 13.19C393.902 13.19 395.072 13.46 396.212 13.85V13.58C396.212 11.69 395.042 10.64 392.762 10.64C391.022 10.64 389.792 10.97 388.322 11.51L387.182 8.03C388.952 7.25 390.692 6.74 393.422 6.74C395.912 6.74 397.712 7.4 398.852 8.54C400.052 9.74 400.592 11.51 400.592 13.67V23H396.182V21.26C395.072 22.49 393.542 23.3 391.322 23.3ZM392.702 20.15C394.832 20.15 396.272 18.98 396.272 17.33V16.52C395.492 16.16 394.472 15.92 393.362 15.92C391.412 15.92 390.212 16.7 390.212 18.2C390.212 19.43 391.232 20.15 392.702 20.15ZM417.104 6.92V10.82H412.334V23H407.714V10.82H402.944V6.92H417.104ZM434.34 6.92V23H429.78V16.85H424.17V23H419.61V6.92H424.17V13.1H429.78V6.92H434.34ZM446.326 23.36C441.346 23.36 437.656 19.67 437.656 14.99C437.656 10.37 441.376 6.62 446.386 6.62C451.366 6.62 455.056 10.31 455.056 14.99C455.056 19.61 451.336 23.36 446.326 23.36ZM446.386 19.43C448.996 19.43 450.556 17.42 450.556 14.99C450.556 12.62 448.846 10.55 446.326 10.55C443.716 10.55 442.156 12.56 442.156 14.99C442.156 17.36 443.866 19.43 446.386 19.43ZM473.345 6.92V23H468.935V13.64L462.665 23H458.375V6.92H462.785V16.31L469.055 6.92H473.345ZM465.995 5.39C463.235 5.39 461.375 3.71 460.955 0.829999L463.625 0.349998C464.015 1.58 464.735 2.36 465.995 2.36C467.255 2.36 467.975 1.58 468.365 0.349998L471.035 0.829999C470.615 3.71 468.755 5.39 465.995 5.39ZM494.037 23.36C489.207 23.36 485.667 19.64 485.667 14.99C485.667 10.4 489.177 6.62 494.097 6.62C497.127 6.62 498.987 7.76 500.487 9.44L497.817 12.14C496.827 11.21 495.867 10.55 494.067 10.55C491.787 10.55 490.167 12.56 490.167 14.99C490.167 17.45 491.757 19.43 494.247 19.43C495.777 19.43 496.827 18.77 497.937 17.72L500.607 20.42C499.047 22.13 497.247 23.36 494.037 23.36ZM503.603 6.92H512.423C515.663 6.92 517.793 8.42 517.793 10.94C517.793 12.89 516.623 13.97 515.243 14.57C517.193 15.17 518.393 16.37 518.393 18.62C518.393 21.35 516.113 23 512.393 23H503.603V6.92ZM508.103 13.37H511.313C512.603 13.37 513.233 12.68 513.233 11.75C513.233 10.97 512.693 10.28 511.373 10.28H508.103V13.37ZM508.103 19.43H511.703C513.113 19.43 513.773 18.77 513.773 17.81C513.773 16.94 513.143 16.25 511.583 16.25H508.103V19.43ZM535.859 6.92V23H531.299V17.84H528.839L525.449 23H520.169L524.279 17.09C522.239 16.31 520.919 14.78 520.919 12.29C520.919 9.08 523.229 6.92 527.429 6.92H535.859ZM528.209 14.54H531.299V10.49H528.179C526.529 10.49 525.539 11.21 525.539 12.53C525.539 13.82 526.559 14.54 528.209 14.54ZM540.927 12.02L538.977 9.23C540.597 7.73 542.967 6.71 545.757 6.71C549.237 6.71 551.877 8.57 551.877 11.06C551.877 12.98 550.827 14.06 549.417 14.69C551.097 15.29 552.267 16.43 552.267 18.44C552.267 21.23 549.597 23.36 545.787 23.36C542.697 23.36 540.297 22.43 538.467 20.81L540.567 17.9C541.887 19.04 543.657 19.73 545.397 19.73C546.777 19.73 547.767 18.95 547.767 18.02C547.767 17.12 546.837 16.37 545.097 16.37H543.207V13.52H545.067C546.507 13.52 547.377 12.77 547.377 11.87C547.377 11.03 546.507 10.34 545.277 10.34C543.537 10.34 542.037 10.97 540.927 12.02ZM570.657 6.92V23H566.247V13.64L559.977 23H555.687V6.92H560.097V16.31L566.367 6.92H570.657Z" fill="#00205C"/>
</svg>
