<svg width="15" height="15" viewBox="0 0 15 15" fill="none" xmlns="http://www.w3.org/2000/svg">
<path d="M4.45808 7.5L0.782454 11.1756C-0.155463 12.1135 -0.130113 13.3049 0.782455 14.2175C1.69502 15.1301 2.88643 15.1554 3.82435 14.2175L7.49997 10.5419L11.1756 14.2175C12.0882 15.1301 13.2796 15.1554 14.2175 14.2175C15.1554 13.2796 15.13 12.0882 14.2175 11.1756L10.5419 7.5L14.2175 3.82438C15.1554 2.88646 15.1301 1.69505 14.2175 0.782485C13.3049 -0.130083 12.1135 -0.155433 11.1756 0.782486L7.49997 4.45811L3.82435 0.782485C2.91178 -0.130082 1.72037 -0.155431 0.782455 0.782486C-0.155462 1.7204 -0.130112 2.91181 0.782455 3.82438L4.45808 7.5Z" fill="#0054A4"/>
</svg>
