<?xml version="1.0" encoding="utf-8"?>
<!-- Generator: Adobe Illustrator 28.4.1, SVG Export Plug-In . SVG Version: 6.00 Build 0)  -->
<svg version="1.1" id="Слой_1" xmlns="http://www.w3.org/2000/svg" xmlns:xlink="http://www.w3.org/1999/xlink" x="0px" y="0px"
	 viewBox="0 0 425.2 425.2" style="enable-background:new 0 0 425.2 425.2;" xml:space="preserve">
<style type="text/css">
	.st0{clip-path:url(#SVGID_00000119099524929505568250000007742364941104744880_);}
	.st1{fill:#3521C1;}
</style>
<g>
	<defs>
		<rect id="SVGID_1_" x="0" y="88" width="425.2" height="249.3"/>
	</defs>
	<clipPath id="SVGID_00000048503477528313441540000004954592478189966240_">
		<use xlink:href="#SVGID_1_"  style="overflow:visible;"/>
	</clipPath>
	<g style="clip-path:url(#SVGID_00000048503477528313441540000004954592478189966240_);">
		<path class="st1" d="M244.5,278.9h-6.3v11.7h-2.5v-14H247v14h-2.5V278.9z"/>
		<path class="st1" d="M252.7,290.6v-14c0.8,0,3,0,4,0c4.1,0,5.5,2.2,5.5,4.5c0,2.4-1.8,4.5-5.2,4.5c-0.4,0-1.2,0-1.8-0.1v5.1
			L252.7,290.6L252.7,290.6z M255.2,278.9v4.3c0.6,0.1,1.2,0.1,1.7,0.1c1.5,0,2.6-0.7,2.6-2.3c0-1.5-0.9-2.2-2.6-2.2
			C256.4,278.8,255.8,278.8,255.2,278.9z"/>
		<path class="st1" d="M272.9,276.3c4.2,0,7.3,2.9,7.3,7.2c0,4.2-3.2,7.2-7.3,7.2c-4.2,0-7.3-2.9-7.3-7.2
			C265.6,279.5,268.6,276.3,272.9,276.3z M272.9,288.5c3,0,4.7-2.2,4.7-4.9c0-2.9-2.1-4.9-4.7-4.9c-2.7,0-4.7,2-4.7,4.9
			C268.2,286.4,270.3,288.5,272.9,288.5z"/>
		<path class="st1" d="M282.7,288.3h1.5c0.6-0.7,1.9-3.7,2.2-8.9l0.1-2.8h8.7v11.7h1.9v4.8h-2.3v-2.5H285v2.5h-2.3V288.3z
			 M286.9,288.3h5.9v-9.4h-3.9l-0.2,2.4C288.4,284.9,287.4,287.6,286.9,288.3z"/>
		<path class="st1" d="M307.3,287.3c-1,2.1-2.1,3.3-3.8,3.3c-0.7,0-1.6-0.3-1.9-0.6l0.9-2.1c0.4,0.3,0.6,0.4,1,0.4
			c0.7,0,1.1-0.4,1.4-1l0.2-0.5l-6.2-10.3h2.8l4.6,7.8l3.4-7.8h2.5L307.3,287.3z"/>
		<path class="st1" d="M316.1,276.5h2.5v6.7l5.6-6.7h3l-5.8,6.5l6.2,7.5h-3.1l-5.8-7.2v7.2h-2.5V276.5z"/>
		<path class="st1" d="M329.5,276.5h11.6v2.3h-4.6v11.7h-2.5v-11.7h-4.6V276.5z"/>
		<path class="st1" d="M199.8,188.8c2.5-3.7,5.1-7.5,7.7-11.2c3.8-5.6,7.7-11.3,11.5-17c10.6-16,17.3-28.8,21.9-41.7
			c3-8.3,3.7-15.2,2.2-21.3c-1.2-4.9-4-8.2-7.8-9.3c-4.5-1.2-9.8,1-14.9,6.3c-5.3,5.4-9.9,11.5-13.6,18.1
			c-7.5,13.4-13.4,28.6-18,46.3c-1.9,7.3-3.4,14.7-4.9,21.9c-0.8,3.7-1.5,7.3-2.3,11c-0.2,1-0.6,1.9-1,2.5
			c-5.2,7.5-12.4,16.8-21.2,27.7c-17.4,20.7-32.6,36.4-47.6,49.4c-12.9,11.2-19.7,16.8-32.8,23.4c-12.9,6.5-24.7,6.5-33.3-0.1
			c-4-3.1-12.5-13.4-6.6-33.7c3.7-12.7,17.8-19.1,13.4-26c-4.4-6.9-35.1,2.5-48,37.4c-9.8,26.6-1.3,45.3,9.4,56.1
			c6.7,6.7,36.1,21.6,82.8-16.4c42.2-34.2,74.2-79.5,80.2-91.2c0.4-0.7,0.7-1.3,1-1.9c0,0.4-0.1,0.9-0.1,1.4
			c-0.9,11.4-2.7,35.1,4.2,52.6c2.6,6.5,6.6,14.3,14.9,17.2c3.8,1.3,8.4,2.2,14-1.1c4.3-2.5,7.1-5.6,8.8-9.7
			c0.5-1.1,1.9-4.5-1.2-6.1c-0.9-0.5-2-0.8-3.4-1c-0.8-0.1-1.6-0.2-2.3-0.2c-1.1-0.1-2.1-0.1-3.1-0.4c-6.4-1.7-14.9-8-15-42.5
			c0-11.5,1.2-23.7,3.9-37.3C198.6,191,199.1,189.7,199.8,188.8z M203.6,159.2c1.6-5.1,3.3-10.4,5.2-15.5c3.2-8.8,6.7-17.5,9.8-25
			c0.9-2.2,2.1-4.3,3.4-6.3c0.4-0.6,0.8-1.3,1.1-1.9c0.5-0.8,1.1-1.7,1.9-2.5c0.9-1,1.6-1.4,2-1.4c0,0,0.1,0,0.1,0
			c0.3,0.1,0.5,0.7,0.7,1.5c0.6,4-1,8.4-2.7,12.5c-6.8,16-15.5,30.8-22.6,42.3C202.9,161.7,203.3,160.4,203.6,159.2z"/>
		<path class="st1" d="M416.2,182.6c-9.8-1.9-2,20.5-32.9,36.4c-4.5,2.3-15.3,7-29.7,4.8c-13.2-2-19.9-10.7-19.9-10.7
			c0.4-1,1.7-3,2.2-4.1c0.7-1.6,1.5-3.2,1.9-4.5c1.5-5.3,1.5-9.7,0.2-14.3c-1.1-3.7-4.1-5.9-7.3-5.3c-0.6,0.1-1.2,0.3-1.7,0.6
			c-5.5,3.1-9.4,9.7-10.4,17.3c-0.5,3.9-0.4,7.6,0.2,11.5c0.1,0.7,0,1.5,0,2.1l0,0.1l-0.1,0.1c-3.4,5.6-7.5,12.1-12.7,17.1
			c-1.7,1.7-4,3.7-6.5,4.1c-0.5,0.1-1.1,0.1-1.6,0.1c-2.2-0.2-3.5-1.1-3.4-5.1c0-1.1,0.2-2.2,0.3-3.2c0.7-4.7,2.3-9.4,5.1-14.4
			c1.6-2.8,3.3-5.6,5.1-8l0.2-0.4l0.4-0.4c2.7-3.5,5.4-6.9,8.2-10.4c3.9-4.9,8.3-10.5,12.5-15.9c11.3-14.8,18.8-26.9,24.1-39.2
			c3.3-7.7,4.4-14.3,3.4-20.2c-0.7-3.7-2.3-6.6-4.7-8.3c-2-1.4-4.4-1.8-7-1.4c-2.9,0.5-6,2.2-9.2,5c-5.6,4.9-10.3,10.3-14.3,16.5
			c-8.2,12.5-14.9,27-20.5,44.2c-2.3,7.1-4.3,14.3-6.2,21.3c-1,3.6-2,7.2-3,10.7c0,0.1-2,6.9-2,6.9c-0.2,0.4-0.3,0.7-0.5,1.1
			l-0.4,0.8c-2,3.2-4.4,7-5.4,8.2c-4.3,5.6-9.6,12.5-15.9,16.5c-1,0.6-2,1-2.9,1.2c-1.2,0.2-2.3,0-3.1-0.6c-1.1-0.8-1.7-2.3-1.9-4.4
			c-0.2-2-0.2-5,0.5-7.7c1-3.5,2.1-7,3.2-10.4c0.2-0.6,0.4-1.2,0.6-1.8c0.5-1.5,1-3,1.4-4.5c0.8-3-0.4-6-2.7-7
			c-2.5-1.1-5.5,0.6-7.9,4.4c-1,1.6-2.2,3.8-3.4,6.1c-1,2-2.1,4-3.2,5.7c-3.7,6.3-8.1,13.4-13.7,18.9c-1.7,1.7-4,3.7-6.5,4.1
			c-0.5,0.1-1.1,0.1-1.6,0.1c-2.2-0.2-3.5-1.1-3.4-5.1c0-1.1,0.2-2.2,0.3-3.2c0.7-4.7,2.3-9.4,5.1-14.4
			c7.6-13.9,16.2-21.6,26.4-23.5c0.4-0.1,0.8-0.1,1.2-0.2c4-0.6,8.5-0.5,11.7,3.8c0.6,0.8,1.2,1.1,1.9,1c0.5-0.1,1.1-0.5,1.7-1.1
			c1.2-1.2,4.9-9.3,3.2-15.7c-1-3.8-3.7-6.3-7.9-7.6c-4.5-1.3-14.3-1.5-29.1,12c-10.5,9.6-20.7,25.6-26.1,40.8
			c-2.7,7.6-3.5,14-2.6,19.6c0.8,5.2,2.6,8.7,5.3,10.6c1.4,1,3,1.5,4.7,1.5c0.6,0,1.3-0.1,2-0.2c0.8-0.2,1.7-0.4,2.5-0.7
			c6.6-2.5,12.6-7.8,18.5-16.2c0.3-0.4,0.6-0.7,0.9-1c0.1-0.1,0.2-0.2,0.3-0.3l0.2-0.3l0.1,0.3c0,0.2,0.1,0.3,0.2,0.5
			c0.1,0.4,0.3,0.8,0.3,1.4c0,3.5,0.8,6.5,2.4,8.9c2.7,4.1,6.5,5.6,11.5,4.6c1.2-0.2,2.4-0.6,3.8-1.1c5.4-2,11-6.1,17.1-12.7
			c1.5-1.6,2.9-3.3,4.2-5.1l0.3-0.4l0.1,0.9c0,0.2,0,0.4,0.1,0.7c0.8,5.1,2.6,8.7,5.3,10.6c1.9,1.3,4.2,1.7,6.7,1.3
			c0.8-0.2,1.7-0.4,2.5-0.7c6.5-2.5,13.9-8.1,20.4-15.4c2.4-2.8,7.3-10.7,12-18.2c3,3,18.3,18.7,42.3,19.3
			c18,0.4,37.6-7.5,46.1-18.3C430.5,204.6,425.7,185.4,416.2,182.6z M313.3,177.9c0.8-1.9,1.5-3.9,2.3-5.8l0-0.1
			c1.7-4.3,3.4-8.7,5.3-13c3.2-7.3,6.8-14.7,9.8-21c0.9-1.9,2.1-3.7,3.3-5.4l0.1-0.2c0.3-0.4,0.6-0.9,0.9-1.4c0.5-0.7,1.2-1.5,2-2.2
			c0.8-0.7,1.5-1.1,2-1.2c0.2,0,0.6,0,0.9,0.2c0.4,0.3,0.7,1,0.7,1.9c0.3,3.8-1.4,7.7-3.2,11.3c-7.2,14.2-16.1,27.1-23,36.7
			c-0.2,0.2-0.4,0.4-0.5,0.6l-0.3,0.3l-0.6-0.3L313.3,177.9z"/>
	</g>
</g>
</svg>
