<svg width="427" height="143" viewBox="0 0 427 143" fill="none" xmlns="http://www.w3.org/2000/svg">
<path fill-rule="evenodd" clip-rule="evenodd" d="M89.5775 35.6503V71.2001H98.9169H108.256L125.429 49.2074L142.601 27.2147V31.4325C142.601 33.7422 142.902 43.3829 142.902 53.4252L143.204 71.2001H153.848H164.694V56.0362C164.694 47.6006 164.393 31.7338 164.393 20.4864V0.100429H155.957H147.522L138.785 10.444C125.529 26.3109 121.311 31.1312 112.876 39.868L109.963 43.0816V21.6914V0.301273H99.9212H89.8788V35.5499H89.5775V35.6503ZM182.168 13.9588C182.168 21.6914 182.168 37.5583 182.168 49.5087V71.2001H192.813H203.458V56.6387V42.0774H217.718H231.978V56.6387V71.2001H242.623H253.267V35.6503V0.100429H242.623H231.978V14.0593V28.0181H217.718H203.458V14.0593V0.100429H193.114H182.77L182.168 13.9588ZM269.436 0.401702C269.436 0.401702 269.436 16.5698 269.436 35.9515V71.5014H278.775H288.114L305.287 49.5087C318.543 32.6376 322.459 27.8172 322.76 28.1185C322.76 28.4198 323.062 36.8553 323.062 47.1989C323.062 57.5425 323.363 67.2836 323.363 68.5891V71.5014H333.706H344.05V48.2032C344.05 35.2486 343.749 19.3817 343.749 12.6533V0.401702H335.414H326.978L317.237 12.0508C303.981 27.9177 299.462 32.738 292.031 40.8723L289.42 43.4833V21.7918V0.100429H279.378C273.955 6.12785e-06 269.436 9.18804e-06 269.436 0.401702ZM400.789 0.401702C394.663 0.401702 393.057 0.702963 387.835 1.00423C376.487 2.00847 369.357 4.51904 365.239 8.73682C362.026 11.9504 360.419 15.8669 360.017 21.6914C359.716 27.8173 361.022 31.7338 364.536 35.2486C367.449 38.1609 371.667 40.4706 379.098 42.9812C379.7 43.2824 380.102 43.2824 380.102 43.5837C380.102 44.5879 374.277 51.015 360.017 66.5806L355.8 71.0997H367.75H379.7L392.354 56.5383L405.007 41.9769V47.1989C405.007 50.1112 405.308 56.5383 405.308 61.7603V71.0997H415.953H426.598V35.5499V0H416.556C411.434 0 404.003 0.401702 400.789 0.401702ZM31.7338 0.401702C30.127 0.702972 29.8257 0.702963 29.1227 2.00847C27.516 4.92074 20.9885 20.7876 8.43555 50.2116C3.91651 61.459 0 70.8988 0 71.2001C0 71.2001 4.51905 71.2001 10.3436 71.2001H20.6872L24.905 59.8523C33.9431 36.2528 38.8638 24.3024 39.1651 24.3024C39.7676 24.3024 43.9854 34.3448 53.1239 57.9442L58.3459 71.2001H68.6895C74.2128 71.2001 79.0331 71.2001 79.0331 71.2001C79.0331 70.8988 69.6937 47.2994 64.1705 34.3448C56.4379 15.8669 49.9104 0.70296 49.9104 0.70296C49.2074 0.40169 33.0393 0.401702 31.7338 0.401702ZM406.011 22.9969V31.7338H400.789C392.655 31.7338 388.538 31.1312 385.224 29.424C383.617 28.4198 382.01 26.5118 381.307 25.2062C380.705 23.5995 381.006 20.3859 381.608 19.0804C382.914 16.4694 386.127 14.8626 391.349 14.2601C392.354 14.2601 395.868 13.9588 399.484 13.9588H405.911V22.9969H406.011Z" fill="white"/>
<path d="M0.000366211 99.62V96.1051V92.5903H213.5H427V96.1051V99.62H213.5H0.000366211Z" fill="white"/>
<path d="M0.000366211 142.4V121.009H14.863V124.926H4.82068V142.4H0.000366211Z" fill="white"/>
<path d="M36.5577 121.009H41.3781V132.056C41.3781 133.663 41.3781 134.968 41.3781 135.972C41.9806 134.968 42.9848 133.06 44.8929 130.449L51.32 121.411H56.2407V142.4H51.4204V131.755C51.4204 131.152 51.4204 129.847 51.4204 127.838C51.1191 128.441 49.5123 130.75 47.2026 133.964L41.3781 142.4H36.5577V121.009Z" fill="white"/>
<path d="M94.8036 142.4V124.926H85.3638V142.4H80.5435V121.009H99.9252V142.4H94.8036Z" fill="white"/>
<path d="M138.08 121.009V124.926H128.741V129.445H137.779V132.96H128.741V138.182H138.482V142.4H123.519V121.009H138.08Z" fill="white"/>
<path d="M174.035 127.838C174.035 126.834 173.733 126.231 173.03 125.528C172.328 124.825 171.424 124.524 169.817 124.524H167.206V130.951H169.817C172.428 131.353 174.035 130.047 174.035 127.838ZM162.084 142.4V121.009H169.817C172.428 121.009 174.637 121.612 176.646 122.616C178.252 123.922 179.257 125.528 179.257 127.838C179.257 130.148 178.654 131.755 176.947 133.06C175.24 134.366 173.031 134.968 169.817 134.968H167.206V142.4H162.084Z" fill="white"/>
<path d="M223.841 121.009L226.754 142.4H221.933L220.628 132.056C220.327 130.449 220.327 128.842 220.025 127.236H219.724C219.724 127.236 219.423 127.838 219.121 129.144C218.82 130.449 218.519 131.453 218.117 132.056L215.205 142.4H211.69L208.175 131.755C207.573 129.847 206.87 128.24 206.87 127.236H206.569C206.569 128.24 206.267 129.847 206.267 131.755L204.962 142.4H200.443L203.355 121.009H208.878L212.393 131.052C212.996 132.658 213.397 133.964 213.699 134.968C214 134.366 214.301 133.06 215.004 131.052L218.519 121.009H223.841Z" fill="white"/>
<path d="M247.443 142.4L256.782 121.009H261.603L270.641 142.4H265.419L263.511 137.579H254.472L252.564 142.4H247.443ZM257.786 129.144L255.878 134.366H262.306L260.397 129.144C260.096 127.838 259.393 126.834 259.092 125.93H258.791C258.791 127.135 258.188 128.139 257.786 129.144Z" fill="white"/>
<path d="M304.381 127.838C304.381 126.834 304.08 126.231 303.377 125.528C302.774 124.926 301.77 124.524 300.163 124.524H297.552V130.951H300.163C302.774 131.353 304.381 130.047 304.381 127.838ZM292.431 142.4V121.009H300.163C302.774 121.009 304.983 121.612 306.992 122.616C308.599 123.922 309.603 125.528 309.603 127.838C309.603 130.148 309 131.755 307.293 133.06C305.586 134.366 303.377 134.968 300.163 134.968H297.552V142.4H292.431Z" fill="white"/>
<path d="M346.759 142.4L336.717 132.658V142.4H331.495V121.009H336.717V130.75L346.458 121.009H352.584L341.537 131.353L352.885 142.4H346.759Z" fill="white"/>
<path d="M388.534 121.009V124.926H379.195V129.445H388.233V132.96H379.195V138.182H388.936V142.4H374.073V121.009H388.534Z" fill="white"/>
<path d="M415.947 142.4V124.926H410.123V121.009H426.994V124.926H421.169V142.4H415.947Z" fill="white"/>
</svg>
