<svg width="842" height="48" viewBox="0 0 842 48" fill="none" xmlns="http://www.w3.org/2000/svg">
<path d="M24.7535 47.792C10.4975 47.792 0.267531 37.166 0.267531 23.9C0.267531 10.766 10.6295 0.00799918 24.8855 0.00799918C39.1415 0.00799918 49.3715 10.634 49.3715 23.9C49.3715 37.034 39.0095 47.792 24.7535 47.792ZM24.8855 38.42C33.0695 38.42 38.7455 31.952 38.7455 23.9C38.7455 15.98 32.9375 9.38 24.7535 9.38C16.5695 9.38 10.8935 15.848 10.8935 23.9C10.8935 31.82 16.7015 38.42 24.8855 38.42ZM82.0358 47.792C68.4398 47.792 58.3418 37.298 58.3418 23.9C58.3418 10.766 68.2418 0.00799918 82.4318 0.00799918C91.1438 0.00799918 96.0278 3.308 100.318 7.532L94.2458 14.528C90.6818 11.294 87.6458 9.38 82.3658 9.38C74.5778 9.38 68.9678 15.848 68.9678 23.9C68.9678 31.82 74.4458 38.42 82.3658 38.42C87.6458 38.42 90.8798 36.308 94.5098 33.008L100.978 39.938C96.2258 45.02 90.9458 47.792 82.0358 47.792ZM121.872 47V10.172H107.814V0.799997H146.094V10.172H132.036V47H121.872ZM151.951 47L171.751 0.469997H181.123L200.923 47H190.297L186.073 36.638H166.537L162.313 47H151.951ZM170.167 27.662H182.443L176.305 12.68L170.167 27.662ZM216.192 0.799997H249.192V47H239.028V9.974H225.696V13.472C225.696 40.664 221.274 47.594 210.714 47.594C209.064 47.594 206.622 47.33 205.368 47L206.028 38.618C206.49 38.684 206.952 38.75 207.612 38.75C213.09 38.75 216.192 35.252 216.192 10.37V0.799997ZM302.061 0.799997V47H292.029V16.706L271.833 47H262.263V0.799997H272.295V31.094L292.623 0.799997H302.061ZM336.829 47.792C323.233 47.792 313.135 37.298 313.135 23.9C313.135 10.766 323.035 0.00799918 337.225 0.00799918C345.937 0.00799918 350.821 3.308 355.111 7.532L349.039 14.528C345.475 11.294 342.439 9.38 337.159 9.38C329.371 9.38 323.761 15.848 323.761 23.9C323.761 31.82 329.239 38.42 337.159 38.42C342.439 38.42 345.673 36.308 349.303 33.008L355.771 39.938C351.019 45.02 345.739 47.792 336.829 47.792ZM365.907 47V0.799997H376.071V16.508H385.905C396.597 16.508 402.801 22.448 402.801 31.49C402.801 40.994 396.069 47 385.245 47H365.907ZM385.047 25.22H376.071V37.826H385.113C390.129 37.826 392.703 35.648 392.703 31.358C392.703 27.464 390.129 25.22 385.047 25.22ZM434.36 47V0.799997H455.81C461.09 0.799997 465.248 2.252 467.888 4.892C470 7.004 471.056 9.578 471.056 12.878C471.056 18.092 468.284 20.996 464.984 22.844C470.33 24.89 473.63 27.992 473.63 34.328C473.63 42.776 466.766 47 456.338 47H434.36ZM444.26 19.478H453.632C458.12 19.478 460.958 18.026 460.958 14.462C460.958 11.426 458.582 9.71 454.292 9.71H444.26V19.478ZM444.26 38.09H456.338C460.826 38.09 463.532 36.506 463.532 32.942C463.532 29.84 461.222 27.926 456.008 27.926H444.26V38.09ZM506.431 47.792C492.175 47.792 481.945 37.166 481.945 23.9C481.945 10.766 492.307 0.00799918 506.563 0.00799918C520.819 0.00799918 531.049 10.634 531.049 23.9C531.049 37.034 520.687 47.792 506.431 47.792ZM506.563 38.42C514.747 38.42 520.423 31.952 520.423 23.9C520.423 15.98 514.615 9.38 506.431 9.38C498.247 9.38 492.571 15.848 492.571 23.9C492.571 31.82 498.379 38.42 506.563 38.42ZM542.065 47V0.799997H580.609V47H570.445V9.974H552.229V47H542.065ZM593.694 47V0.799997H612.57C623.592 0.799997 630.258 7.334 630.258 16.904C630.258 27.596 621.942 33.14 611.58 33.14H603.858V47H593.694ZM603.858 24.098H611.91C616.992 24.098 619.962 21.062 619.962 16.97C619.962 12.416 616.794 9.974 611.712 9.974H603.858V24.098ZM662.22 47.792C647.964 47.792 637.734 37.166 637.734 23.9C637.734 10.766 648.096 0.00799918 662.352 0.00799918C676.608 0.00799918 686.838 10.634 686.838 23.9C686.838 37.034 676.476 47.792 662.22 47.792ZM662.352 38.42C670.536 38.42 676.212 31.952 676.212 23.9C676.212 15.98 670.404 9.38 662.22 9.38C654.036 9.38 648.36 15.848 648.36 23.9C648.36 31.82 654.168 38.42 662.352 38.42ZM719.503 47.792C705.907 47.792 695.809 37.298 695.809 23.9C695.809 10.766 705.709 0.00799918 719.899 0.00799918C728.611 0.00799918 733.495 3.308 737.785 7.532L731.713 14.528C728.149 11.294 725.113 9.38 719.833 9.38C712.045 9.38 706.435 15.848 706.435 23.9C706.435 31.82 711.913 38.42 719.833 38.42C725.113 38.42 728.347 36.308 731.977 33.008L738.445 39.938C733.693 45.02 728.413 47.792 719.503 47.792ZM748.581 47V0.799997H758.745V16.508H768.579C779.271 16.508 785.475 22.448 785.475 31.49C785.475 40.994 778.743 47 767.919 47H748.581ZM767.721 25.22H758.745V37.826H767.787C772.803 37.826 775.377 35.648 775.377 31.358C775.377 27.464 772.803 25.22 767.721 25.22ZM790.623 47V0.799997H800.787V47H790.623ZM821.332 31.292L819.814 20.6L820.144 20.27C828.46 19.94 831.694 17.762 831.694 14.132C831.694 11.162 829.45 9.446 825.622 9.446C821.926 9.446 818.758 10.964 815.722 14L809.65 7.334C813.478 3.11 818.626 0.205997 825.82 0.205997C835.324 0.205997 841.792 5.09 841.792 14C841.792 22.382 835.984 25.814 828.79 27.266L828.064 31.292H821.332ZM819.154 47V36.44H829.846V47H819.154Z" fill="#00205C"/>
</svg>
