<svg width="209" height="68" viewBox="0 0 209 68" fill="none" xmlns="http://www.w3.org/2000/svg">
<path d="M14.6622 15.8L21.4222 0.999998H28.1022L17.3422 22.64C14.9022 27.52 12.1022 29.44 8.18219 29.44C5.78219 29.44 3.90219 28.8 2.14219 27.8L4.54219 23.28C5.66219 23.96 6.78219 24.2 7.86219 24.2C8.98219 24.2 10.2622 23.68 11.3822 21.96L0.182189 0.999998H7.06219L14.6622 15.8ZM45.3347 29.48C37.0947 29.48 30.9747 23.12 30.9747 15C30.9747 7.04 36.9747 0.52 45.5747 0.52C50.8547 0.52 53.8147 2.52 56.4147 5.08L52.7347 9.32C50.5747 7.36 48.7347 6.2 45.5347 6.2C40.8147 6.2 37.4147 10.12 37.4147 15C37.4147 19.8 40.7347 23.8 45.5347 23.8C48.7347 23.8 50.6947 22.52 52.8947 20.52L56.8147 24.72C53.9347 27.8 50.7347 29.48 45.3347 29.48ZM65.4834 0.999998H85.4834V29H79.3234V6.56H71.2434V8.68C71.2434 25.16 68.5634 29.36 62.1634 29.36C61.1634 29.36 59.6834 29.2 58.9234 29L59.3234 23.92C59.6034 23.96 59.8834 24 60.2834 24C63.6034 24 65.4834 21.88 65.4834 6.8V0.999998ZM105.811 29.48C97.1706 29.48 90.9706 23.04 90.9706 15C90.9706 7.04 97.2506 0.52 105.891 0.52C114.531 0.52 120.731 6.96 120.731 15C120.731 22.96 114.451 29.48 105.811 29.48ZM105.891 23.8C110.851 23.8 114.291 19.88 114.291 15C114.291 10.2 110.771 6.2 105.811 6.2C100.851 6.2 97.4106 10.12 97.4106 15C97.4106 19.8 100.931 23.8 105.891 23.8ZM126.213 29V0.999998H139.213C142.413 0.999998 144.933 1.88 146.533 3.48C147.813 4.76 148.453 6.32 148.453 8.32C148.453 11.48 146.773 13.24 144.773 14.36C148.013 15.6 150.013 17.48 150.013 21.32C150.013 26.44 145.853 29 139.533 29H126.213ZM132.213 12.32H137.893C140.613 12.32 142.333 11.44 142.333 9.28C142.333 7.44 140.893 6.4 138.293 6.4H132.213V12.32ZM132.213 23.6H139.533C142.253 23.6 143.893 22.64 143.893 20.48C143.893 18.6 142.493 17.44 139.333 17.44H132.213V23.6ZM179.217 0.999998V29H173.137V10.64L160.897 29H155.097V0.999998H161.177V19.36L173.497 0.999998H179.217ZM208.134 0.999998V29H201.974V20.04H197.134L191.134 29H183.934L190.774 19C187.214 17.68 184.774 14.84 184.774 10.24C184.774 4.44 188.774 0.999998 195.334 0.999998H208.134ZM195.734 14.6H201.974V6.56H195.854C192.854 6.56 191.014 7.92 191.014 10.64C191.014 13 192.734 14.6 195.734 14.6ZM17.9913 53.8L24.7513 39H31.4313L20.6713 60.64C18.2313 65.52 15.4313 67.44 11.5113 67.44C9.11125 67.44 7.23125 66.8 5.47125 65.8L7.87125 61.28C8.99125 61.96 10.1113 62.2 11.1913 62.2C12.3113 62.2 13.5913 61.68 14.7113 59.96L3.51125 39H10.3913L17.9913 53.8ZM51.7838 67V56.56C49.9038 57.48 47.2238 58.64 44.3838 58.64C38.8238 58.64 34.9838 55.72 34.9838 49.24V39H41.1438V47.44C41.1438 50.92 42.5038 52.88 45.6638 52.88C48.1438 52.88 50.5038 52.08 51.7838 51.08V39H57.9438V67H51.7838ZM62.2628 67L74.2628 38.8H79.9428L91.9428 67H85.5028L82.9428 60.72H71.1028L68.5428 67H62.2628ZM73.3028 55.28H80.7428L77.0228 46.2L73.3028 55.28ZM109.402 67.48C101.162 67.48 95.0419 61.12 95.0419 53C95.0419 45.04 101.042 38.52 109.642 38.52C114.922 38.52 117.882 40.52 120.482 43.08L116.802 47.32C114.642 45.36 112.802 44.2 109.602 44.2C104.882 44.2 101.482 48.12 101.482 53C101.482 57.8 104.802 61.8 109.602 61.8C112.802 61.8 114.762 60.52 116.962 58.52L120.882 62.72C118.002 65.8 114.802 67.48 109.402 67.48ZM132.351 67V44.68H123.831V39H147.031V44.68H138.511V67H132.351ZM175.906 39V67H169.826V48.64L157.586 67H151.786V39H157.866V57.36L170.186 39H175.906ZM204.822 39V67H198.662V58.04H193.822L187.822 67H180.622L187.462 57C183.902 55.68 181.462 52.84 181.462 48.24C181.462 42.44 185.462 39 192.022 39H204.822ZM192.422 52.6H198.662V44.56H192.542C189.542 44.56 187.702 45.92 187.702 48.64C187.702 51 189.422 52.6 192.422 52.6Z" fill="white"/>
</svg>
