<svg width="74" height="74" viewBox="0 0 74 74" fill="none" xmlns="http://www.w3.org/2000/svg">
<path fill-rule="evenodd" clip-rule="evenodd" d="M3.08386 36.9989C3.08386 18.2673 18.2689 3.08228 37.0005 3.08228C55.7322 3.08228 70.9172 18.2673 70.9172 36.9989C70.9172 55.7306 55.7322 70.9156 37.0005 70.9156C18.2689 70.9156 3.08386 55.7306 3.08386 36.9989Z" fill="#26C87F"/>
<path fill-rule="evenodd" clip-rule="evenodd" d="M53.3752 24.7981C54.5793 26.0022 54.5793 27.9545 53.3752 29.1586L34.2366 49.2002C33.0325 50.4044 31.0802 50.4044 29.8761 49.2002L20.6261 39.9503C19.422 38.7461 19.422 36.7939 20.6261 35.5898C21.8302 34.3857 23.7825 34.3857 24.9866 35.5898L32.0564 42.6595L49.0147 24.7981C50.2188 23.594 52.1711 23.594 53.3752 24.7981Z" fill="white"/>
</svg>
