<?xml version="1.0" encoding="utf-8"?>
<!-- Generator: Adobe Illustrator 28.4.1, SVG Export Plug-In . SVG Version: 6.00 Build 0)  -->
<svg version="1.1" id="Слой_1" xmlns="http://www.w3.org/2000/svg" xmlns:xlink="http://www.w3.org/1999/xlink" x="0px" y="0px"
	 viewBox="0 0 19 19" style="enable-background:new 0 0 19 19;" xml:space="preserve">
<style type="text/css">
	.st0{fill:#FFFFFF;}
</style>
<path class="st0" d="M7.3,7.3H2.2C0.8,7.3,0,8.2,0,9.5c0,1.3,0.8,2.2,2.2,2.2h5.2v5.2c0,1.3,0.8,2.2,2.2,2.2c1.3,0,2.2-0.9,2.2-2.2
	v-5.2h5.2c1.3,0,2.2-0.9,2.2-2.2c0-1.3-0.8-2.2-2.2-2.2h-5.2V2.2c0-1.3-0.8-2.2-2.2-2.2C8.2,0,7.3,0.9,7.3,2.2V7.3z"/>
</svg>
