<svg width="32" height="35" viewBox="0 0 32 35" fill="none" xmlns="http://www.w3.org/2000/svg">
<path d="M20.875 0.812537C19.5198 0.80891 18.1772 1.07389 16.925 1.59216C15.6727 2.11043 14.5356 2.87172 13.5793 3.83204L0.943024 16.471C0.555377 16.858 0.337309 17.383 0.336793 17.9307C0.336277 18.4784 0.553355 19.0039 0.940273 19.3915C1.32719 19.7792 1.85225 19.9972 2.39995 19.9978C2.94765 19.9983 3.47313 19.7812 3.86077 19.3943L16.5025 6.74979C17.6785 5.66864 19.2268 5.08374 20.8239 5.11728C22.4211 5.15083 23.9434 5.80023 25.073 6.9298C26.2026 8.05938 26.852 9.58175 26.8855 11.1789C26.9191 12.776 26.3342 14.3243 25.253 15.5003L10.6698 30.0835C10.2788 30.4479 9.76166 30.6462 9.22734 30.6368C8.69301 30.6273 8.1832 30.4109 7.80531 30.033C7.42743 29.6551 7.21097 29.1453 7.20154 28.611C7.19211 28.0766 7.39045 27.5595 7.75477 27.1685L22.338 12.5853C22.7257 12.198 22.9436 11.6726 22.9439 11.1246C22.9441 10.5767 22.7267 10.0511 22.3394 9.66341C21.9521 9.27577 21.4267 9.05784 20.8787 9.05758C20.3308 9.05733 19.8052 9.27475 19.4175 9.66204L4.83152 24.2508C3.75037 25.4268 3.16547 26.9751 3.19902 28.5722C3.23257 30.1693 3.88196 31.6917 5.01154 32.8213C6.14112 33.9508 7.66349 34.6002 9.2606 34.6338C10.8577 34.6673 12.406 34.0824 13.582 33.0013L28.1653 18.418C29.1263 17.4626 29.8882 16.3261 30.407 15.0743C30.9257 13.8224 31.191 12.4801 31.1875 11.125C31.1846 8.39089 30.0972 5.76955 28.1638 3.83621C26.2305 1.90288 23.6092 0.815449 20.875 0.812537Z" fill="#F75D5D"/>
</svg>
