<svg width="749" height="48" viewBox="0 0 749 48" fill="none" xmlns="http://www.w3.org/2000/svg">
<path d="M0.626032 47V0.799997H22.076C27.356 0.799997 31.514 2.252 34.154 4.892C36.266 7.004 37.322 9.578 37.322 12.878C37.322 18.092 34.55 20.996 31.25 22.844C36.596 24.89 39.896 27.992 39.896 34.328C39.896 42.776 33.032 47 22.604 47H0.626032ZM10.526 19.478H19.898C24.386 19.478 27.224 18.026 27.224 14.462C27.224 11.426 24.848 9.71 20.558 9.71H10.526V19.478ZM10.526 38.09H22.604C27.092 38.09 29.798 36.506 29.798 32.942C29.798 29.84 27.488 27.926 22.274 27.926H10.526V38.09ZM72.6969 47.792C58.4409 47.792 48.2109 37.166 48.2109 23.9C48.2109 10.766 58.5729 0.00799918 72.8289 0.00799918C87.0849 0.00799918 97.3149 10.634 97.3149 23.9C97.3149 37.034 86.9529 47.792 72.6969 47.792ZM72.8289 38.42C81.0129 38.42 86.6889 31.952 86.6889 23.9C86.6889 15.98 80.8809 9.38 72.6969 9.38C64.5129 9.38 58.8369 15.848 58.8369 23.9C58.8369 31.82 64.6449 38.42 72.8289 38.42ZM108.331 47V0.799997H146.875V47H136.711V9.974H118.495V47H108.331ZM159.96 47V0.799997H178.836C189.858 0.799997 196.524 7.334 196.524 16.904C196.524 27.596 188.208 33.14 177.846 33.14H170.124V47H159.96ZM170.124 24.098H178.176C183.258 24.098 186.228 21.062 186.228 16.97C186.228 12.416 183.06 9.974 177.978 9.974H170.124V24.098ZM228.486 47.792C214.23 47.792 204 37.166 204 23.9C204 10.766 214.362 0.00799918 228.618 0.00799918C242.874 0.00799918 253.104 10.634 253.104 23.9C253.104 37.034 242.742 47.792 228.486 47.792ZM228.618 38.42C236.802 38.42 242.478 31.952 242.478 23.9C242.478 15.98 236.67 9.38 228.486 9.38C220.302 9.38 214.626 15.848 214.626 23.9C214.626 31.82 220.434 38.42 228.618 38.42ZM285.768 47.792C272.172 47.792 262.074 37.298 262.074 23.9C262.074 10.766 271.974 0.00799918 286.164 0.00799918C294.876 0.00799918 299.76 3.308 304.05 7.532L297.978 14.528C294.414 11.294 291.378 9.38 286.098 9.38C278.31 9.38 272.7 15.848 272.7 23.9C272.7 31.82 278.178 38.42 286.098 38.42C291.378 38.42 294.612 36.308 298.242 33.008L304.71 39.938C299.958 45.02 294.678 47.792 285.768 47.792ZM314.847 47V0.799997H325.011V16.508H334.845C345.537 16.508 351.741 22.448 351.741 31.49C351.741 40.994 345.009 47 334.185 47H314.847ZM333.987 25.22H325.011V37.826H334.053C339.069 37.826 341.643 35.648 341.643 31.358C341.643 27.464 339.069 25.22 333.987 25.22ZM356.889 47V0.799997H367.053V47H356.889ZM399.683 31.358V21.722H420.011V31.358H399.683ZM475.095 47.792C460.839 47.792 450.609 37.166 450.609 23.9C450.609 10.766 460.971 0.00799918 475.227 0.00799918C489.483 0.00799918 499.713 10.634 499.713 23.9C499.713 37.034 489.351 47.792 475.095 47.792ZM475.227 38.42C483.411 38.42 489.087 31.952 489.087 23.9C489.087 15.98 483.279 9.38 475.095 9.38C466.911 9.38 461.235 15.848 461.235 23.9C461.235 31.82 467.043 38.42 475.227 38.42ZM521.488 47V10.172H507.43V0.799997H545.71V10.172H531.652V47H521.488ZM555.526 47V0.799997H576.976C582.256 0.799997 586.414 2.252 589.054 4.892C591.166 7.004 592.222 9.578 592.222 12.878C592.222 18.092 589.45 20.996 586.15 22.844C591.496 24.89 594.796 27.992 594.796 34.328C594.796 42.776 587.932 47 577.504 47H555.526ZM565.426 19.478H574.798C579.286 19.478 582.124 18.026 582.124 14.462C582.124 11.426 579.748 9.71 575.458 9.71H565.426V19.478ZM565.426 38.09H577.504C581.992 38.09 584.698 36.506 584.698 32.942C584.698 29.84 582.388 27.926 577.174 27.926H565.426V38.09ZM605.157 47V0.799997H640.005V9.842H615.255V19.214H637.035V28.256H615.255V37.958H640.335V47H605.157ZM662.13 47V10.172H648.072V0.799997H686.352V10.172H672.294V47H662.13ZM696.169 47V0.799997H706.333V16.508H716.167C726.859 16.508 733.063 22.448 733.063 31.49C733.063 40.994 726.331 47 715.507 47H696.169ZM715.309 25.22H706.333V37.826H715.375C720.391 37.826 722.965 35.648 722.965 31.358C722.965 27.464 720.391 25.22 715.309 25.22ZM738.211 47V0.799997H748.375V47H738.211Z" fill="#00205C"/>
</svg>
