<svg width="30" height="29" viewBox="0 0 30 29" fill="none" xmlns="http://www.w3.org/2000/svg">
<path d="M4.84595 20.3913C3.43173 21.8055 3.54487 23.5025 4.76109 24.7188C5.97731 25.935 7.67437 26.0481 9.08859 24.6339L25.1541 8.56844C26.5683 7.15423 26.4551 5.45717 25.2389 4.24095C24.0227 3.02473 22.3256 2.91159 20.9114 4.3258L4.84595 20.3913Z" fill="white"/>
<path d="M21.2508 24.2946C22.665 25.7088 24.3621 25.5957 25.5783 24.3794C26.7945 23.1632 26.9077 21.4662 25.4935 20.0519L9.428 3.98648C8.01379 2.57227 6.31673 2.68541 5.10051 3.90163C3.88428 5.11785 3.77115 6.81491 5.18536 8.22912L21.2508 24.2946Z" fill="white"/>
</svg>
