<?xml version="1.0" encoding="utf-8"?>
<!-- Generator: Adobe Illustrator 28.4.1, SVG Export Plug-In . SVG Version: 6.00 Build 0)  -->
<svg version="1.1" id="Слой_1" xmlns="http://www.w3.org/2000/svg" xmlns:xlink="http://www.w3.org/1999/xlink" x="0px" y="0px"
	 viewBox="0 0 15 15" style="enable-background:new 0 0 15 15;" xml:space="preserve">
<style type="text/css">
	.st0{fill:#FFFFFF;}
</style>
<path class="st0" d="M4.5,7.5l-3.7,3.7c-0.9,0.9-0.9,2.1,0,3c0.9,0.9,2.1,0.9,3,0l3.7-3.7l3.7,3.7c0.9,0.9,2.1,0.9,3,0
	c0.9-0.9,0.9-2.1,0-3l-3.7-3.7l3.7-3.7c0.9-0.9,0.9-2.1,0-3c-0.9-0.9-2.1-0.9-3,0L7.5,4.5L3.8,0.8c-0.9-0.9-2.1-0.9-3,0
	c-0.9,0.9-0.9,2.1,0,3L4.5,7.5z"/>
</svg>
